<svg width="100" height="100" viewBox="0 0 100 100" fill="none" xmlns="http://www.w3.org/2000/svg">
<g clip-path="url(#clip0)">
<path d="M92.7722 65.7722C71.7667 79.3139 37.0444 64.5556 41.7306 43.3778C45.8389 24.8111 67.8944 30.1472 72.9111 32.6528C77.9278 35.1583 74.8917 21.85 63.2583 17.8556C47.5 12.4444 28.2111 13.5917 22.1139 40.7722C17.9472 59.3472 26.1083 85.3889 57.4444 85.7361C88.7806 86.0833 92.7722 65.7722 92.7722 65.7722V65.7722Z" fill="#339922"/>
<path d="M99.9667 69.9806C99.9667 64.0194 92.3167 63.4972 88.8556 66.8722C80.5389 74.9806 68.2944 78.0167 51.9167 74.8194C23.4444 69.2639 23.1917 35.8917 42.6583 26.3722C53.1889 21.2222 65.6833 27.3194 70.4333 30.9694C74.5667 34.1444 82.4722 38.3583 82.0583 33.0583C81.175 21.775 59.0611 -2.38889 29.4306 12.8889C-0.19722 28.1667 1.61931e-06 62.6472 1.61931e-06 68.8972V89.0361C1.61931e-06 95.1722 5.03889 100 11.175 100H88.9528C95.0889 100 100 95.1722 100 89.0361C100 89.0361 99.9889 69.9972 99.9667 69.9806V69.9806Z" fill="#74EE55"/>
</g>
<defs>
<clipPath id="clip0">
<rect width="100" height="100" fill="white"/>
</clipPath>
</defs>
</svg>
