<svg width="133" height="133" viewBox="0 0 133 133" fill="none" xmlns="http://www.w3.org/2000/svg">
<g filter="url(#filter0_d)">
<circle cx="66.5" cy="62.5" r="62.5" fill="#EEEEEE"/>
<circle cx="66.5" cy="62.5" r="62.5" fill="url(#paint0_linear)"/>
</g>
<path d="M46.8846 49.5C48.875 49.6447 61 81.5 69.5 78.5C66.109 69.1425 78 75.5 69.5 78.5C72.891 87.8575 48.9116 71.2672 48.9116 71.2672L46.8846 60.2337C46.8846 60.2337 44.8942 49.3553 46.8846 49.5Z" fill="#A352FD"/>
<path d="M61.2353 35C62.8824 34.5 87.5 77.5 86 72.5C88.0663 70.1592 84.5 67.5 86 72.5C83.9337 74.8408 63.2479 57.2286 63.2479 57.2286L61.2209 46.1951C61.2209 46.1951 59.5882 35.5 61.2353 35Z" fill="#A352FD"/>
<path d="M81.5 22.5C79.5 16.5 70.1421 84.016 61.2209 85C67.177 77.7597 52.2998 85.984 61.2209 85L80.0209 63.0428C80.0209 63.0428 83.5 28.5 81.5 22.5Z" fill="#A352FD"/>
<g filter="url(#filter1_d)">
<path d="M91 73C91 76.1736 90.6015 84.1495 89.3393 87.0815C88.0772 90.0135 86.2272 92.6776 83.8951 94.9217C81.5629 97.1658 78.7942 98.9459 75.7471 100.16C72.7 101.375 69.4341 102 66.136 102C62.8378 102 59.5719 101.375 56.5248 100.16C53.4777 98.9459 50.709 97.1658 48.3769 94.9217C46.0447 92.6776 44.1947 90.0135 42.9326 87.0815C41.6704 84.1495 41.0208 76.1736 41.0208 73H91Z" fill="#313B74"/>
<path fill-rule="evenodd" clip-rule="evenodd" d="M70.2146 76.8578C75.3103 75.1995 66.8065 75.8425 66.8065 75.8425L70.2146 76.8578Z" fill="#313B74"/>
<path d="M48.386 58.0629C48.386 36.6867 40.5442 59.1422 41.0208 73C41.4974 86.8577 70.2146 76.8578 70.2146 76.8578C68.6776 76.8483 48.386 79.439 48.386 58.0629Z" fill="#313B74"/>
<path d="M62.2141 36.9945C63.9281 50.989 83.8951 75.8425 83.8951 75.8425L46.8517 83C46.8517 83 60.5 23 62.2141 36.9945Z" fill="#313B74"/>
<path d="M83.3761 24.7231C91.7523 39.9461 91 73.0932 91 73.0932C91 73.0932 39.6243 84.1335 64.4632 73.0932C89.302 62.053 75 9.5 83.3761 24.7231Z" fill="#313B74"/>
</g>
<g filter="url(#filter2_d)">
<path fill-rule="evenodd" clip-rule="evenodd" d="M73 85.1225C73 78.0816 70.0099 70.4804 66.3165 69.0966C64.7818 68.5215 65.0204 70.5969 65.3123 73.1372C65.7039 76.5443 66.1916 80.7877 62.6261 80.5942C62.3408 80.5333 62.0325 80.4921 61.6998 80.4762C60.6523 80.3253 60.3015 80.3645 60.4384 80.5326C60.4359 80.533 60.4333 80.5333 60.4308 80.5336C57.6904 86.838 58.8489 92 64.2307 92C69.6124 92 73 90.6887 73 85.1225C73 85.1225 73 85.1225 73 85.1224C73 85.1225 73 85.1225 73 85.1225ZM65.9117 82.7665C65.8492 82.7448 65.7868 82.723 65.7246 82.7012C65.8573 82.8826 65.9115 82.9537 65.9115 82.8261C65.9115 82.8062 65.9116 82.7863 65.9117 82.7665Z" fill="#A352FD"/>
</g>
<defs>
<filter id="filter0_d" x="0" y="0" width="133" height="133" filterUnits="userSpaceOnUse" color-interpolation-filters="sRGB">
<feFlood flood-opacity="0" result="BackgroundImageFix"/>
<feColorMatrix in="SourceAlpha" type="matrix" values="0 0 0 0 0 0 0 0 0 0 0 0 0 0 0 0 0 0 127 0"/>
<feOffset dy="4"/>
<feGaussianBlur stdDeviation="2"/>
<feColorMatrix type="matrix" values="0 0 0 0 0 0 0 0 0 0 0 0 0 0 0 0 0 0 0.25 0"/>
<feBlend mode="normal" in2="BackgroundImageFix" result="effect1_dropShadow"/>
<feBlend mode="normal" in="SourceGraphic" in2="effect1_dropShadow" result="shape"/>
</filter>
<filter id="filter1_d" x="39.9999" y="20.478" width="56.0175" height="86.022" filterUnits="userSpaceOnUse" color-interpolation-filters="sRGB">
<feFlood flood-opacity="0" result="BackgroundImageFix"/>
<feColorMatrix in="SourceAlpha" type="matrix" values="0 0 0 0 0 0 0 0 0 0 0 0 0 0 0 0 0 0 127 0"/>
<feOffset dx="2" dy="1.5"/>
<feGaussianBlur stdDeviation="1.5"/>
<feColorMatrix type="matrix" values="0 0 0 0 0 0 0 0 0 0 0 0 0 0 0 0 0 0 0.25 0"/>
<feBlend mode="normal" in2="BackgroundImageFix" result="effect1_dropShadow"/>
<feBlend mode="normal" in="SourceGraphic" in2="effect1_dropShadow" result="shape"/>
</filter>
<filter id="filter2_d" x="57" y="69" width="22" height="31" filterUnits="userSpaceOnUse" color-interpolation-filters="sRGB">
<feFlood flood-opacity="0" result="BackgroundImageFix"/>
<feColorMatrix in="SourceAlpha" type="matrix" values="0 0 0 0 0 0 0 0 0 0 0 0 0 0 0 0 0 0 127 0"/>
<feOffset dx="2" dy="4"/>
<feGaussianBlur stdDeviation="2"/>
<feColorMatrix type="matrix" values="0 0 0 0 0 0 0 0 0 0 0 0 0 0 0 0 0 0 0.1 0"/>
<feBlend mode="normal" in2="BackgroundImageFix" result="effect1_dropShadow"/>
<feBlend mode="normal" in="SourceGraphic" in2="effect1_dropShadow" result="shape"/>
</filter>
<linearGradient id="paint0_linear" x1="66.5" y1="0" x2="66.5" y2="125" gradientUnits="userSpaceOnUse">
<stop stop-color="white"/>
<stop offset="1" stop-color="white" stop-opacity="0"/>
</linearGradient>
</defs>
</svg>
