<svg width="108" height="108" viewBox="0 0 108 108" fill="none" xmlns="http://www.w3.org/2000/svg">
<g filter="url(#filter0_d)">
<circle cx="54" cy="50" r="50" fill="#EEEEEE"/>
<circle cx="54" cy="50" r="50" fill="url(#paint0_linear)"/>
</g>
<path d="M34.8485 38.0901C36.7575 38.228 48.3867 68.5854 56.5392 65.7265C53.2869 56.8089 64.6917 62.8675 56.5392 65.7265C59.7916 74.644 36.7926 58.8337 36.7926 58.8337L34.8485 48.319C34.8485 48.319 32.9394 37.9522 34.8485 38.0901Z" fill="#A352FD"/>
<path d="M49 24.5C52.5 21.5 73.8033 64.7735 72.3647 60.0086C74.3465 57.7779 70.926 55.2437 72.3647 60.0086C70.3829 62.2393 50.5427 45.4552 50.5427 45.4552L48.5987 34.9406C48.5987 34.9406 45.5 27.5 49 24.5Z" fill="#A352FD"/>
<path d="M68.0486 12.3596C66.1304 6.64178 59.0992 74.0623 50.5427 75C56.2553 68.1002 41.9863 75.9378 50.5427 75L66.63 50.9961C66.63 50.9961 69.9669 18.0775 68.0486 12.3596Z" fill="#A352FD"/>
<g filter="url(#filter1_d)">
<path d="M77.3835 60.2025C77.3835 63.2008 77.0059 70.7359 75.8098 73.5059C74.6137 76.2759 72.8605 78.7928 70.6504 80.9129C68.4403 83.0329 65.8165 84.7147 62.9288 85.8621C60.0412 87.0094 56.9462 87.6 53.8206 87.6C50.6951 87.6 47.6001 87.0094 44.7124 85.8621C41.8248 84.7147 39.201 83.0329 36.9909 80.9129C34.7808 78.7928 33.0276 76.2759 31.8315 73.5059C30.6354 70.7359 30.0198 63.2008 30.0198 60.2025H77.3835Z" fill="#5369ED"/>
<path d="M77.3835 60.2025C77.3835 63.2008 77.0059 70.7359 75.8098 73.5059C74.6137 76.2759 72.8605 78.7928 70.6504 80.9129C68.4403 83.0329 65.8165 84.7147 62.9288 85.8621C60.0412 87.0094 56.9462 87.6 53.8206 87.6C50.6951 87.6 47.6001 87.0094 44.7124 85.8621C41.8248 84.7147 39.201 83.0329 36.9909 80.9129C34.7808 78.7928 33.0276 76.2759 31.8315 73.5059C30.6354 70.7359 30.0198 63.2008 30.0198 60.2025H77.3835Z" fill="url(#paint1_radial)"/>
<path fill-rule="evenodd" clip-rule="evenodd" d="M57.6858 63.8471C62.5149 62.2805 54.4561 62.888 54.4561 62.888L57.6858 63.8471Z" fill="#5369ED"/>
<path fill-rule="evenodd" clip-rule="evenodd" d="M57.6858 63.8471C62.5149 62.2805 54.4561 62.888 54.4561 62.888L57.6858 63.8471Z" fill="url(#paint2_radial)"/>
<path d="M36.9996 46.0908C36.9996 25.8959 29.5682 47.1106 30.0198 60.2025C30.4714 73.2945 57.6858 63.8471 57.6858 63.8471C56.2292 63.8381 36.9996 66.2858 36.9996 46.0908Z" fill="#5369ED"/>
<path d="M36.9996 46.0908C36.9996 25.8959 29.5682 47.1106 30.0198 60.2025C30.4714 73.2945 57.6858 63.8471 57.6858 63.8471C56.2292 63.8381 36.9996 66.2858 36.9996 46.0908Z" fill="url(#paint3_radial)"/>
<path d="M50.104 26.1867C51.7283 39.4079 70.6504 62.888 70.6504 62.888L35.5455 69.6499C35.5455 69.6499 48.4796 12.9656 50.104 26.1867Z" fill="#5369ED"/>
<path d="M50.104 26.1867C51.7283 39.4079 70.6504 62.888 70.6504 62.888L35.5455 69.6499C35.5455 69.6499 48.4796 12.9656 50.104 26.1867Z" fill="url(#paint4_radial)"/>
<path d="M70.1586 14.5934C78.0964 28.9753 77.3835 60.2906 77.3835 60.2906C77.3835 60.2906 28.6964 70.7208 52.2354 60.2906C75.7743 49.8605 62.2208 0.211569 70.1586 14.5934Z" fill="#5369ED"/>
<path d="M70.1586 14.5934C78.0964 28.9753 77.3835 60.2906 77.3835 60.2906C77.3835 60.2906 28.6964 70.7208 52.2354 60.2906C75.7743 49.8605 62.2208 0.211569 70.1586 14.5934Z" fill="url(#paint5_radial)"/>
</g>
<g filter="url(#filter2_d)">
<path fill-rule="evenodd" clip-rule="evenodd" d="M60 71.4215C60 64.6868 57.2235 57.416 53.7939 56.0924C52.3689 55.5424 52.5904 57.5275 52.8615 59.9573C53.2251 63.2163 53.6779 67.2752 50.3671 67.0901C50.1021 67.0319 49.8159 66.9924 49.507 66.9773C48.5342 66.8329 48.2085 66.8704 48.3357 67.0312C48.3333 67.0315 48.331 67.0319 48.3286 67.0322C45.784 73.0625 46.8597 78 51.857 78C56.8544 78 60 76.7457 60 71.4215C60 71.4215 60 71.4215 60 71.4215C60 71.4215 60 71.4215 60 71.4215ZM53.418 69.168C53.36 69.1472 53.3021 69.1264 53.2443 69.1055C53.3675 69.279 53.4179 69.347 53.4179 69.225C53.4179 69.2059 53.4179 69.1869 53.418 69.168Z" fill="#A352FD"/>
</g>
<defs>
<filter id="filter0_d" x="0" y="0" width="108" height="108" filterUnits="userSpaceOnUse" color-interpolation-filters="sRGB">
<feFlood flood-opacity="0" result="BackgroundImageFix"/>
<feColorMatrix in="SourceAlpha" type="matrix" values="0 0 0 0 0 0 0 0 0 0 0 0 0 0 0 0 0 0 127 0"/>
<feOffset dy="4"/>
<feGaussianBlur stdDeviation="2"/>
<feColorMatrix type="matrix" values="0 0 0 0 0 0 0 0 0 0 0 0 0 0 0 0 0 0 0.25 0"/>
<feBlend mode="normal" in2="BackgroundImageFix" result="effect1_dropShadow"/>
<feBlend mode="normal" in="SourceGraphic" in2="effect1_dropShadow" result="shape"/>
</filter>
<filter id="filter1_d" x="29" y="10.5" width="53.4" height="81.6" filterUnits="userSpaceOnUse" color-interpolation-filters="sRGB">
<feFlood flood-opacity="0" result="BackgroundImageFix"/>
<feColorMatrix in="SourceAlpha" type="matrix" values="0 0 0 0 0 0 0 0 0 0 0 0 0 0 0 0 0 0 127 0"/>
<feOffset dx="2" dy="1.5"/>
<feGaussianBlur stdDeviation="1.5"/>
<feColorMatrix type="matrix" values="0 0 0 0 0 0 0 0 0 0 0 0 0 0 0 0 0 0 0.25 0"/>
<feBlend mode="normal" in2="BackgroundImageFix" result="effect1_dropShadow"/>
<feBlend mode="normal" in="SourceGraphic" in2="effect1_dropShadow" result="shape"/>
</filter>
<filter id="filter2_d" x="45" y="56" width="21" height="30" filterUnits="userSpaceOnUse" color-interpolation-filters="sRGB">
<feFlood flood-opacity="0" result="BackgroundImageFix"/>
<feColorMatrix in="SourceAlpha" type="matrix" values="0 0 0 0 0 0 0 0 0 0 0 0 0 0 0 0 0 0 127 0"/>
<feOffset dx="2" dy="4"/>
<feGaussianBlur stdDeviation="2"/>
<feColorMatrix type="matrix" values="0 0 0 0 0 0 0 0 0 0 0 0 0 0 0 0 0 0 0.1 0"/>
<feBlend mode="normal" in2="BackgroundImageFix" result="effect1_dropShadow"/>
<feBlend mode="normal" in="SourceGraphic" in2="effect1_dropShadow" result="shape"/>
</filter>
<linearGradient id="paint0_linear" x1="54" y1="0" x2="54" y2="100" gradientUnits="userSpaceOnUse">
<stop stop-color="white"/>
<stop offset="1" stop-color="white" stop-opacity="0"/>
</linearGradient>
<radialGradient id="paint1_radial" cx="0" cy="0" r="1" gradientUnits="userSpaceOnUse" gradientTransform="translate(53 68) rotate(87.1376) scale(20.025 19.4667)">
<stop stop-color="white" stop-opacity="0.41"/>
<stop offset="1" stop-color="white" stop-opacity="0"/>
</radialGradient>
<radialGradient id="paint2_radial" cx="0" cy="0" r="1" gradientUnits="userSpaceOnUse" gradientTransform="translate(53 68) rotate(87.1376) scale(20.025 19.4667)">
<stop stop-color="white" stop-opacity="0.41"/>
<stop offset="1" stop-color="white" stop-opacity="0"/>
</radialGradient>
<radialGradient id="paint3_radial" cx="0" cy="0" r="1" gradientUnits="userSpaceOnUse" gradientTransform="translate(53 68) rotate(87.1376) scale(20.025 19.4667)">
<stop stop-color="white" stop-opacity="0.41"/>
<stop offset="1" stop-color="white" stop-opacity="0"/>
</radialGradient>
<radialGradient id="paint4_radial" cx="0" cy="0" r="1" gradientUnits="userSpaceOnUse" gradientTransform="translate(53 68) rotate(87.1376) scale(20.025 19.4667)">
<stop stop-color="white" stop-opacity="0.41"/>
<stop offset="1" stop-color="white" stop-opacity="0"/>
</radialGradient>
<radialGradient id="paint5_radial" cx="0" cy="0" r="1" gradientUnits="userSpaceOnUse" gradientTransform="translate(53 68) rotate(87.1376) scale(20.025 19.4667)">
<stop stop-color="white" stop-opacity="0.41"/>
<stop offset="1" stop-color="white" stop-opacity="0"/>
</radialGradient>
</defs>
</svg>
