<svg width="100" height="100" viewBox="0 0 100 100" fill="none" xmlns="http://www.w3.org/2000/svg">
<path d="M52.4125 9.97084C51.7114 9.46792 50.8692 9.19953 50.0064 9.20402C49.1435 9.20851 48.3042 9.48565 47.6083 9.99584C39.9667 15.5333 16.6667 34.3833 16.6667 58.3333C16.6667 71.8625 24.7833 83.5125 36.3917 88.7333C34.4056 85.9384 33.3369 82.5954 33.3333 79.1667C33.2625 65.7458 48.1583 50.4458 48.7917 50C49.1434 49.748 49.5652 49.6124 49.9979 49.6124C50.4306 49.6124 50.8524 49.748 51.2042 50C51.8375 50.4458 66.6667 62.3917 66.6667 79.175C66.6667 82.7333 65.5208 86.0208 63.6125 88.7333C75.2167 83.5125 83.3333 71.8667 83.3333 58.3542C83.3333 33.9333 60.075 15.4083 52.4125 9.97084V9.97084Z" fill="#FFA500"/>
</svg>
