<svg width="357" height="109" viewBox="0 0 357 109" fill="none" xmlns="http://www.w3.org/2000/svg">
<path d="M110.14 49.8677C110.14 50.422 110.083 50.9574 109.968 51.4736C109.854 51.9899 109.672 52.4448 109.422 52.8384C109.173 53.2319 108.845 53.5493 108.438 53.7905C108.036 54.0275 107.546 54.146 106.966 54.146C106.386 54.146 105.893 54.0275 105.487 53.7905C105.085 53.5493 104.757 53.2319 104.503 52.8384C104.253 52.4448 104.073 51.9899 103.963 51.4736C103.849 50.9574 103.792 50.422 103.792 49.8677C103.792 49.3133 103.849 48.778 103.963 48.2617C104.073 47.7454 104.255 47.2884 104.509 46.8906C104.767 46.4928 105.097 46.1755 105.5 45.9385C105.906 45.6973 106.395 45.5767 106.966 45.5767C107.537 45.5767 108.024 45.6973 108.426 45.9385C108.832 46.1755 109.16 46.4928 109.41 46.8906C109.659 47.2884 109.843 47.7454 109.962 48.2617C110.08 48.778 110.14 49.3133 110.14 49.8677ZM109.264 49.8677C109.264 49.3218 109.211 48.8309 109.105 48.395C109.003 47.9549 108.855 47.5804 108.661 47.2715C108.466 46.9626 108.225 46.7277 107.937 46.5669C107.653 46.4019 107.33 46.3193 106.966 46.3193C106.513 46.3193 106.139 46.4251 105.842 46.6367C105.55 46.8483 105.315 47.1255 105.138 47.4683C104.96 47.811 104.835 48.1919 104.763 48.6108C104.695 49.0298 104.662 49.4487 104.662 49.8677C104.662 50.2824 104.695 50.7013 104.763 51.1245C104.835 51.5435 104.96 51.9222 105.138 52.2607C105.315 52.5951 105.55 52.8701 105.842 53.0859C106.139 53.2975 106.513 53.4033 106.966 53.4033C107.414 53.4033 107.787 53.2975 108.083 53.0859C108.379 52.8701 108.616 52.5951 108.794 52.2607C108.972 51.9222 109.094 51.5435 109.162 51.1245C109.23 50.7013 109.264 50.2824 109.264 49.8677ZM117.167 51.061C117.167 51.5223 117.092 51.9412 116.944 52.3179C116.8 52.6945 116.591 53.0182 116.316 53.2891C116.045 53.5557 115.719 53.7651 115.338 53.9175C114.958 54.0698 114.532 54.146 114.062 54.146C113.601 54.146 113.18 54.0698 112.799 53.9175C112.418 53.7651 112.09 53.5557 111.815 53.2891C111.545 53.0182 111.335 52.6945 111.187 52.3179C111.043 51.9412 110.971 51.5223 110.971 51.061C110.971 50.6125 111.043 50.1956 111.187 49.8105C111.335 49.4212 111.545 49.0911 111.815 48.8203C112.09 48.5452 112.418 48.3315 112.799 48.1792C113.18 48.0226 113.601 47.9443 114.062 47.9443C114.532 47.9443 114.958 48.0226 115.338 48.1792C115.719 48.3315 116.045 48.5452 116.316 48.8203C116.591 49.0911 116.8 49.4212 116.944 49.8105C117.092 50.1956 117.167 50.6125 117.167 51.061ZM116.297 51.061C116.297 50.7225 116.246 50.4115 116.145 50.1279C116.047 49.8402 115.901 49.5884 115.707 49.3726C115.512 49.1567 115.275 48.9875 114.996 48.8647C114.721 48.742 114.41 48.6807 114.062 48.6807C113.715 48.6807 113.402 48.742 113.123 48.8647C112.848 48.9875 112.615 49.1567 112.425 49.3726C112.234 49.5884 112.088 49.8402 111.987 50.1279C111.889 50.4115 111.841 50.7225 111.841 51.061C111.841 51.3996 111.889 51.7127 111.987 52.0005C112.088 52.284 112.234 52.5295 112.425 52.7368C112.615 52.9442 112.848 53.1071 113.123 53.2256C113.402 53.3441 113.715 53.4033 114.062 53.4033C114.41 53.4033 114.721 53.3441 114.996 53.2256C115.275 53.1071 115.512 52.9442 115.707 52.7368C115.901 52.5295 116.047 52.284 116.145 52.0005C116.246 51.7127 116.297 51.3996 116.297 51.061ZM124.111 51.0483C124.111 51.5096 124.039 51.9285 123.895 52.3052C123.751 52.6818 123.548 53.0076 123.286 53.2827C123.028 53.5535 122.714 53.7651 122.346 53.9175C121.978 54.0698 121.565 54.146 121.108 54.146C120.795 54.146 120.491 54.0889 120.194 53.9746C119.902 53.8604 119.629 53.6911 119.375 53.4668V56.3677H118.506V48.084H119.375V48.6299C119.913 48.1729 120.491 47.9443 121.108 47.9443C121.565 47.9443 121.978 48.0205 122.346 48.1729C122.714 48.321 123.028 48.5347 123.286 48.814C123.548 49.089 123.751 49.4191 123.895 49.8042C124.039 50.1851 124.111 50.5998 124.111 51.0483ZM123.241 51.0483C123.241 50.7183 123.195 50.4093 123.102 50.1216C123.013 49.8296 122.877 49.5778 122.695 49.3662C122.513 49.1546 122.289 48.9875 122.022 48.8647C121.76 48.742 121.455 48.6807 121.108 48.6807C120.778 48.6807 120.469 48.742 120.182 48.8647C119.898 48.9875 119.629 49.1864 119.375 49.4614V52.6353C119.629 52.9103 119.898 53.1071 120.182 53.2256C120.469 53.3441 120.778 53.4033 121.108 53.4033C121.455 53.4033 121.76 53.342 122.022 53.2192C122.289 53.0965 122.513 52.9294 122.695 52.7178C122.877 52.5062 123.013 52.2586 123.102 51.9751C123.195 51.6873 123.241 51.3784 123.241 51.0483ZM131.049 52.3623C131.049 52.7093 130.962 52.9971 130.789 53.2256C130.615 53.4541 130.391 53.6361 130.116 53.7715C129.845 53.9069 129.54 54.0021 129.202 54.0571C128.867 54.1164 128.539 54.146 128.218 54.146C127.68 54.146 127.145 54.0677 126.612 53.9111C126.079 53.7546 125.617 53.5493 125.228 53.2954L125.615 52.5464C126.051 52.8215 126.481 53.033 126.904 53.1812C127.327 53.3293 127.765 53.4033 128.218 53.4033C129.525 53.4033 130.179 53.0648 130.179 52.3877C130.179 52.2227 130.124 52.0894 130.014 51.9878C129.908 51.882 129.764 51.7974 129.583 51.7339C129.401 51.6662 129.191 51.6133 128.954 51.5752C128.721 51.5371 128.476 51.5011 128.218 51.4673C127.888 51.4207 127.56 51.3657 127.234 51.3022C126.908 51.2388 126.61 51.1436 126.339 51.0166C126.072 50.8896 125.856 50.7204 125.691 50.5088C125.531 50.2972 125.45 50.0179 125.45 49.6709C125.45 49.3747 125.524 49.1187 125.672 48.9028C125.825 48.687 126.026 48.5072 126.275 48.3633C126.529 48.2194 126.826 48.1136 127.164 48.0459C127.503 47.9782 127.854 47.9443 128.218 47.9443C128.738 47.9443 129.204 48.0057 129.614 48.1284C130.025 48.2469 130.395 48.4183 130.725 48.6426L130.376 49.3218C130.037 49.0848 129.695 48.9198 129.348 48.8267C129.001 48.7293 128.624 48.6807 128.218 48.6807C128.036 48.6807 127.833 48.6976 127.608 48.7314C127.388 48.7611 127.183 48.8161 126.993 48.8965C126.802 48.9727 126.641 49.0742 126.51 49.2012C126.383 49.3239 126.32 49.4805 126.32 49.6709C126.32 49.8359 126.373 49.9692 126.479 50.0708C126.589 50.1681 126.735 50.2507 126.917 50.3184C127.098 50.3818 127.306 50.4326 127.539 50.4707C127.776 50.5088 128.023 50.5448 128.281 50.5786C128.603 50.6252 128.927 50.6802 129.252 50.7437C129.583 50.8071 129.881 50.9002 130.147 51.0229C130.418 51.1457 130.636 51.3128 130.801 51.5244C130.966 51.736 131.049 52.0153 131.049 52.3623ZM135.937 54H134.756V52.8193H135.937V54ZM143.033 54H141.853V52.8193H143.033V54ZM150.13 54H148.949V52.8193H150.13V54ZM159.283 54H158.407V50.3501C158.407 49.8211 158.293 49.4106 158.064 49.1187C157.836 48.8267 157.466 48.6807 156.954 48.6807C156.632 48.6807 156.34 48.7547 156.078 48.9028C155.819 49.0509 155.599 49.2498 155.417 49.4995C155.236 49.745 155.096 50.0285 154.999 50.3501C154.905 50.6675 154.859 50.9997 154.859 51.3467V54H153.989V48.084H154.859V49.5693C155.278 48.486 156.025 47.9443 157.1 47.9443C158.555 47.9443 159.283 48.7463 159.283 50.3501V54ZM166.843 51.061C166.843 51.5223 166.769 51.9412 166.621 52.3179C166.477 52.6945 166.268 53.0182 165.993 53.2891C165.722 53.5557 165.396 53.7651 165.015 53.9175C164.634 54.0698 164.209 54.146 163.739 54.146C163.278 54.146 162.857 54.0698 162.476 53.9175C162.095 53.7651 161.767 53.5557 161.492 53.2891C161.221 53.0182 161.012 52.6945 160.864 52.3179C160.72 51.9412 160.648 51.5223 160.648 51.061C160.648 50.6125 160.72 50.1956 160.864 49.8105C161.012 49.4212 161.221 49.0911 161.492 48.8203C161.767 48.5452 162.095 48.3315 162.476 48.1792C162.857 48.0226 163.278 47.9443 163.739 47.9443C164.209 47.9443 164.634 48.0226 165.015 48.1792C165.396 48.3315 165.722 48.5452 165.993 48.8203C166.268 49.0911 166.477 49.4212 166.621 49.8105C166.769 50.1956 166.843 50.6125 166.843 51.061ZM165.974 51.061C165.974 50.7225 165.923 50.4115 165.821 50.1279C165.724 49.8402 165.578 49.5884 165.383 49.3726C165.189 49.1567 164.952 48.9875 164.672 48.8647C164.397 48.742 164.086 48.6807 163.739 48.6807C163.392 48.6807 163.079 48.742 162.8 48.8647C162.525 48.9875 162.292 49.1567 162.102 49.3726C161.911 49.5884 161.765 49.8402 161.664 50.1279C161.566 50.4115 161.518 50.7225 161.518 51.061C161.518 51.3996 161.566 51.7127 161.664 52.0005C161.765 52.284 161.911 52.5295 162.102 52.7368C162.292 52.9442 162.525 53.1071 162.8 53.2256C163.079 53.3441 163.392 53.4033 163.739 53.4033C164.086 53.4033 164.397 53.3441 164.672 53.2256C164.952 53.1071 165.189 52.9442 165.383 52.7368C165.578 52.5295 165.724 52.284 165.821 52.0005C165.923 51.7127 165.974 51.3996 165.974 51.061ZM173.851 52.1147C173.783 52.7368 173.538 53.2319 173.115 53.6001C172.696 53.964 172.171 54.146 171.541 54.146C171.194 54.146 170.876 54.0889 170.588 53.9746C170.301 53.8604 170.055 53.7017 169.852 53.4985C169.649 53.2954 169.49 53.0521 169.376 52.7686C169.266 52.4808 169.211 52.1676 169.211 51.8291V48.8267H167.872V48.084H169.211V45.7163H170.081V48.084H172.601V48.8267H170.081V51.8291C170.081 52.0449 170.114 52.248 170.182 52.4385C170.254 52.6289 170.351 52.7961 170.474 52.9399C170.601 53.0838 170.753 53.1981 170.931 53.2827C171.109 53.3631 171.312 53.4033 171.541 53.4033C171.972 53.4033 172.332 53.27 172.62 53.0034C172.912 52.7326 173.079 52.3835 173.121 51.9561L173.851 52.1147ZM180.573 54H179.697V50.3501C179.697 49.8211 179.583 49.4106 179.354 49.1187C179.126 48.8267 178.756 48.6807 178.244 48.6807C177.922 48.6807 177.63 48.7547 177.368 48.9028C177.11 49.0509 176.889 49.2498 176.708 49.4995C176.526 49.745 176.386 50.0285 176.289 50.3501C176.195 50.6675 176.149 50.9997 176.149 51.3467V54H175.279V45.7163H176.149V49.5693C176.568 48.486 177.315 47.9443 178.39 47.9443C179.845 47.9443 180.573 48.7463 180.573 50.3501V54ZM185.613 46.9033H184.433V45.7163H185.613V46.9033ZM186.794 54H183.246V53.2573H184.585V48.8267H183.246V48.084H185.461V53.2573H186.794V54ZM194.767 54H193.891V50.3501C193.891 49.8211 193.776 49.4106 193.548 49.1187C193.319 48.8267 192.949 48.6807 192.437 48.6807C192.115 48.6807 191.823 48.7547 191.561 48.9028C191.303 49.0509 191.083 49.2498 190.901 49.4995C190.719 49.745 190.579 50.0285 190.482 50.3501C190.389 50.6675 190.342 50.9997 190.342 51.3467V54H189.473V48.084H190.342V49.5693C190.761 48.486 191.508 47.9443 192.583 47.9443C194.039 47.9443 194.767 48.7463 194.767 50.3501V54ZM201.863 53.9365C201.863 54.3428 201.793 54.7046 201.654 55.022C201.514 55.3394 201.317 55.6081 201.063 55.8281C200.814 56.0482 200.518 56.2153 200.175 56.3296C199.836 56.4481 199.458 56.5073 199.039 56.5073C198.45 56.5073 197.949 56.3973 197.534 56.1772C197.124 55.9572 196.768 55.6398 196.468 55.2251L197.077 54.7554C197.259 55.0304 197.521 55.2611 197.864 55.4473C198.207 55.6335 198.598 55.7266 199.039 55.7266C199.639 55.7266 200.113 55.5742 200.46 55.2695C200.812 54.9691 200.987 54.5332 200.987 53.9619V53.3271C200.471 53.7842 199.883 54.0127 199.223 54.0127C198.296 54.0127 197.568 53.7482 197.039 53.2192C196.51 52.6903 196.246 51.9666 196.246 51.0483C196.246 50.5998 196.313 50.1872 196.449 49.8105C196.588 49.4297 196.785 49.1017 197.039 48.8267C197.297 48.5474 197.61 48.3315 197.979 48.1792C198.347 48.0226 198.761 47.9443 199.223 47.9443C199.544 47.9443 199.855 48.0015 200.156 48.1157C200.46 48.2257 200.738 48.3929 200.987 48.6172V48.084H201.863V53.9365ZM200.987 49.4614C200.738 49.1864 200.463 48.9875 200.162 48.8647C199.866 48.742 199.553 48.6807 199.223 48.6807C198.876 48.6807 198.569 48.742 198.302 48.8647C198.04 48.9875 197.822 49.1546 197.648 49.3662C197.475 49.5778 197.342 49.8296 197.249 50.1216C197.16 50.4093 197.115 50.7183 197.115 51.0483C197.115 51.7254 197.291 52.265 197.642 52.667C197.993 53.069 198.52 53.27 199.223 53.27C199.553 53.27 199.866 53.2087 200.162 53.0859C200.463 52.959 200.738 52.7559 200.987 52.4766V49.4614ZM216.431 52.1147C216.363 52.7368 216.118 53.2319 215.695 53.6001C215.276 53.964 214.751 54.146 214.121 54.146C213.774 54.146 213.456 54.0889 213.168 53.9746C212.881 53.8604 212.635 53.7017 212.432 53.4985C212.229 53.2954 212.07 53.0521 211.956 52.7686C211.846 52.4808 211.791 52.1676 211.791 51.8291V48.8267H210.452V48.084H211.791V45.7163H212.661V48.084H215.181V48.8267H212.661V51.8291C212.661 52.0449 212.694 52.248 212.762 52.4385C212.834 52.6289 212.931 52.7961 213.054 52.9399C213.181 53.0838 213.333 53.1981 213.511 53.2827C213.689 53.3631 213.892 53.4033 214.121 53.4033C214.552 53.4033 214.912 53.27 215.2 53.0034C215.492 52.7326 215.659 52.3835 215.701 51.9561L216.431 52.1147ZM223.617 51.061C223.617 51.5223 223.543 51.9412 223.395 52.3179C223.251 52.6945 223.041 53.0182 222.766 53.2891C222.495 53.5557 222.169 53.7651 221.789 53.9175C221.408 54.0698 220.982 54.146 220.513 54.146C220.051 54.146 219.63 54.0698 219.25 53.9175C218.869 53.7651 218.541 53.5557 218.266 53.2891C217.995 53.0182 217.785 52.6945 217.637 52.3179C217.493 51.9412 217.421 51.5223 217.421 51.061C217.421 50.6125 217.493 50.1956 217.637 49.8105C217.785 49.4212 217.995 49.0911 218.266 48.8203C218.541 48.5452 218.869 48.3315 219.25 48.1792C219.63 48.0226 220.051 47.9443 220.513 47.9443C220.982 47.9443 221.408 48.0226 221.789 48.1792C222.169 48.3315 222.495 48.5452 222.766 48.8203C223.041 49.0911 223.251 49.4212 223.395 49.8105C223.543 50.1956 223.617 50.6125 223.617 51.061ZM222.747 51.061C222.747 50.7225 222.696 50.4115 222.595 50.1279C222.497 49.8402 222.351 49.5884 222.157 49.3726C221.962 49.1567 221.725 48.9875 221.446 48.8647C221.171 48.742 220.86 48.6807 220.513 48.6807C220.166 48.6807 219.853 48.742 219.573 48.8647C219.298 48.9875 219.065 49.1567 218.875 49.3726C218.685 49.5884 218.539 49.8402 218.437 50.1279C218.34 50.4115 218.291 50.7225 218.291 51.061C218.291 51.3996 218.34 51.7127 218.437 52.0005C218.539 52.284 218.685 52.5295 218.875 52.7368C219.065 52.9442 219.298 53.1071 219.573 53.2256C219.853 53.3441 220.166 53.4033 220.513 53.4033C220.86 53.4033 221.171 53.3441 221.446 53.2256C221.725 53.1071 221.962 52.9442 222.157 52.7368C222.351 52.5295 222.497 52.284 222.595 52.0005C222.696 51.7127 222.747 51.3996 222.747 51.061ZM237.499 52.3623C237.499 52.7093 237.412 52.9971 237.239 53.2256C237.065 53.4541 236.841 53.6361 236.566 53.7715C236.295 53.9069 235.99 54.0021 235.652 54.0571C235.318 54.1164 234.99 54.146 234.668 54.146C234.131 54.146 233.595 54.0677 233.062 53.9111C232.529 53.7546 232.068 53.5493 231.678 53.2954L232.065 52.5464C232.501 52.8215 232.931 53.033 233.354 53.1812C233.777 53.3293 234.215 53.4033 234.668 53.4033C235.976 53.4033 236.629 53.0648 236.629 52.3877C236.629 52.2227 236.574 52.0894 236.464 51.9878C236.359 51.882 236.215 51.7974 236.033 51.7339C235.851 51.6662 235.641 51.6133 235.404 51.5752C235.172 51.5371 234.926 51.5011 234.668 51.4673C234.338 51.4207 234.01 51.3657 233.684 51.3022C233.358 51.2388 233.06 51.1436 232.789 51.0166C232.522 50.8896 232.307 50.7204 232.142 50.5088C231.981 50.2972 231.9 50.0179 231.9 49.6709C231.9 49.3747 231.974 49.1187 232.123 48.9028C232.275 48.687 232.476 48.5072 232.726 48.3633C232.979 48.2194 233.276 48.1136 233.614 48.0459C233.953 47.9782 234.304 47.9443 234.668 47.9443C235.188 47.9443 235.654 48.0057 236.064 48.1284C236.475 48.2469 236.845 48.4183 237.175 48.6426L236.826 49.3218C236.488 49.0848 236.145 48.9198 235.798 48.8267C235.451 48.7293 235.074 48.6807 234.668 48.6807C234.486 48.6807 234.283 48.6976 234.059 48.7314C233.839 48.7611 233.633 48.8161 233.443 48.8965C233.252 48.9727 233.092 49.0742 232.96 49.2012C232.833 49.3239 232.77 49.4805 232.77 49.6709C232.77 49.8359 232.823 49.9692 232.929 50.0708C233.039 50.1681 233.185 50.2507 233.367 50.3184C233.549 50.3818 233.756 50.4326 233.989 50.4707C234.226 50.5088 234.473 50.5448 234.731 50.5786C235.053 50.6252 235.377 50.6802 235.703 50.7437C236.033 50.8071 236.331 50.9002 236.598 51.0229C236.868 51.1457 237.086 51.3128 237.251 51.5244C237.417 51.736 237.499 52.0153 237.499 52.3623ZM244.443 54H243.567V50.3501C243.567 49.8211 243.453 49.4106 243.225 49.1187C242.996 48.8267 242.626 48.6807 242.114 48.6807C241.792 48.6807 241.5 48.7547 241.238 48.9028C240.98 49.0509 240.76 49.2498 240.578 49.4995C240.396 49.745 240.256 50.0285 240.159 50.3501C240.066 50.6675 240.019 50.9997 240.019 51.3467V54H239.149V45.7163H240.019V49.5693C240.438 48.486 241.185 47.9443 242.26 47.9443C243.715 47.9443 244.443 48.7463 244.443 50.3501V54ZM252.003 51.061C252.003 51.5223 251.929 51.9412 251.781 52.3179C251.637 52.6945 251.428 53.0182 251.153 53.2891C250.882 53.5557 250.556 53.7651 250.175 53.9175C249.794 54.0698 249.369 54.146 248.899 54.146C248.438 54.146 248.017 54.0698 247.636 53.9175C247.255 53.7651 246.927 53.5557 246.652 53.2891C246.382 53.0182 246.172 52.6945 246.024 52.3179C245.88 51.9412 245.808 51.5223 245.808 51.061C245.808 50.6125 245.88 50.1956 246.024 49.8105C246.172 49.4212 246.382 49.0911 246.652 48.8203C246.927 48.5452 247.255 48.3315 247.636 48.1792C248.017 48.0226 248.438 47.9443 248.899 47.9443C249.369 47.9443 249.794 48.0226 250.175 48.1792C250.556 48.3315 250.882 48.5452 251.153 48.8203C251.428 49.0911 251.637 49.4212 251.781 49.8105C251.929 50.1956 252.003 50.6125 252.003 51.061ZM251.134 51.061C251.134 50.7225 251.083 50.4115 250.981 50.1279C250.884 49.8402 250.738 49.5884 250.543 49.3726C250.349 49.1567 250.112 48.9875 249.833 48.8647C249.557 48.742 249.246 48.6807 248.899 48.6807C248.552 48.6807 248.239 48.742 247.96 48.8647C247.685 48.9875 247.452 49.1567 247.262 49.3726C247.071 49.5884 246.925 49.8402 246.824 50.1279C246.726 50.4115 246.678 50.7225 246.678 51.061C246.678 51.3996 246.726 51.7127 246.824 52.0005C246.925 52.284 247.071 52.5295 247.262 52.7368C247.452 52.9442 247.685 53.1071 247.96 53.2256C248.239 53.3441 248.552 53.4033 248.899 53.4033C249.246 53.4033 249.557 53.3441 249.833 53.2256C250.112 53.1071 250.349 52.9442 250.543 52.7368C250.738 52.5295 250.884 52.284 250.981 52.0005C251.083 51.7127 251.134 51.3996 251.134 51.061ZM259.145 48.084L257.945 54H256.929L255.983 49.6582L255.088 54H254.073L252.86 48.084H253.787L254.644 52.8193L255.564 48.084H256.428L257.374 52.8193L258.23 48.084H259.145ZM270.773 46.9033H269.593V45.7163H270.773V46.9033ZM271.954 54H268.406V53.2573H269.745V48.8267H268.406V48.084H270.621V53.2573H271.954V54ZM279.927 54H279.051V50.3501C279.051 49.8211 278.937 49.4106 278.708 49.1187C278.479 48.8267 278.109 48.6807 277.597 48.6807C277.276 48.6807 276.984 48.7547 276.721 48.9028C276.463 49.0509 276.243 49.2498 276.061 49.4995C275.879 49.745 275.739 50.0285 275.642 50.3501C275.549 50.6675 275.502 50.9997 275.502 51.3467V54H274.633V48.084H275.502V49.5693C275.921 48.486 276.668 47.9443 277.743 47.9443C279.199 47.9443 279.927 48.7463 279.927 50.3501V54ZM294.12 54H293.244V50.3501C293.244 49.8211 293.13 49.4106 292.901 49.1187C292.673 48.8267 292.303 48.6807 291.791 48.6807C291.469 48.6807 291.177 48.7547 290.915 48.9028C290.656 49.0509 290.436 49.2498 290.254 49.4995C290.072 49.745 289.933 50.0285 289.835 50.3501C289.742 50.6675 289.696 50.9997 289.696 51.3467V54H288.826V45.7163H289.696V49.5693C290.115 48.486 290.862 47.9443 291.937 47.9443C293.392 47.9443 294.12 48.7463 294.12 50.3501V54ZM296.481 51.3467C296.545 51.973 296.773 52.4723 297.167 52.8447C297.561 53.2171 298.073 53.4033 298.703 53.4033C299.147 53.4033 299.543 53.3123 299.89 53.1304C300.237 52.9484 300.497 52.722 300.671 52.4512L301.28 52.8701C300.984 53.2848 300.631 53.6022 300.22 53.8223C299.81 54.0381 299.304 54.146 298.703 54.146C298.246 54.146 297.827 54.0698 297.446 53.9175C297.065 53.7651 296.735 53.5535 296.456 53.2827C296.181 53.0076 295.967 52.6818 295.815 52.3052C295.663 51.9285 295.586 51.5096 295.586 51.0483C295.586 50.5998 295.654 50.1872 295.79 49.8105C295.929 49.4297 296.128 49.1017 296.386 48.8267C296.649 48.5474 296.966 48.3315 297.338 48.1792C297.711 48.0226 298.128 47.9443 298.589 47.9443C299.092 47.9443 299.533 48.029 299.909 48.1982C300.286 48.3675 300.599 48.6024 300.849 48.9028C301.103 49.1991 301.289 49.5545 301.407 49.9692C301.53 50.384 301.591 50.8431 301.591 51.3467H296.481ZM300.671 50.604C300.574 49.9565 300.339 49.4741 299.966 49.1567C299.594 48.8394 299.135 48.6807 298.589 48.6807C298.31 48.6807 298.051 48.7272 297.814 48.8203C297.577 48.9092 297.368 49.0382 297.186 49.2075C297.004 49.3768 296.852 49.582 296.729 49.8232C296.606 50.0602 296.528 50.3205 296.494 50.604H300.671ZM308.301 48.9155C307.988 48.759 307.615 48.6807 307.184 48.6807C306.828 48.6807 306.511 48.7568 306.231 48.9092C305.952 49.0615 305.715 49.2625 305.521 49.5122C305.326 49.7576 305.176 50.0412 305.07 50.3628C304.968 50.6802 304.917 51.0081 304.917 51.3467V53.2573H306.257V54H302.708V53.2573H304.048V48.8267H302.708V48.084H304.917V49.5693C305.315 48.486 306.071 47.9443 307.184 47.9443C307.484 47.9443 307.744 47.9634 307.964 48.0015C308.189 48.0396 308.396 48.1073 308.586 48.2046L308.301 48.9155ZM310.675 51.3467C310.738 51.973 310.967 52.4723 311.36 52.8447C311.754 53.2171 312.266 53.4033 312.896 53.4033C313.341 53.4033 313.736 53.3123 314.083 53.1304C314.431 52.9484 314.691 52.722 314.864 52.4512L315.474 52.8701C315.177 53.2848 314.824 53.6022 314.414 53.8223C314.003 54.0381 313.497 54.146 312.896 54.146C312.439 54.146 312.021 54.0698 311.64 53.9175C311.259 53.7651 310.929 53.5535 310.649 53.2827C310.374 53.0076 310.161 52.6818 310.008 52.3052C309.856 51.9285 309.78 51.5096 309.78 51.0483C309.78 50.5998 309.847 50.1872 309.983 49.8105C310.123 49.4297 310.321 49.1017 310.58 48.8267C310.842 48.5474 311.159 48.3315 311.532 48.1792C311.904 48.0226 312.321 47.9443 312.782 47.9443C313.286 47.9443 313.726 48.029 314.103 48.1982C314.479 48.3675 314.792 48.6024 315.042 48.9028C315.296 49.1991 315.482 49.5545 315.601 49.9692C315.723 50.384 315.785 50.8431 315.785 51.3467H310.675ZM314.864 50.604C314.767 49.9565 314.532 49.4741 314.16 49.1567C313.787 48.8394 313.328 48.6807 312.782 48.6807C312.503 48.6807 312.245 48.7272 312.008 48.8203C311.771 48.9092 311.561 49.0382 311.379 49.2075C311.197 49.3768 311.045 49.582 310.922 49.8232C310.8 50.0602 310.721 50.3205 310.688 50.604H314.864ZM320.438 45.7163L320.114 51.6704H319.593L319.27 45.7163H320.438ZM320.45 54H319.27V52.8193H320.45V54ZM113.517 77.8291C113.301 78.54 112.947 79.105 112.457 79.5239C111.966 79.9386 111.348 80.146 110.603 80.146C110.023 80.146 109.532 80.0275 109.13 79.7905C108.728 79.5493 108.398 79.2319 108.14 78.8384C107.886 78.4448 107.702 77.9899 107.588 77.4736C107.478 76.9574 107.423 76.422 107.423 75.8677C107.423 75.3133 107.478 74.778 107.588 74.2617C107.702 73.7454 107.886 73.2884 108.14 72.8906C108.398 72.4928 108.728 72.1755 109.13 71.9385C109.532 71.6973 110.023 71.5767 110.603 71.5767C111.115 71.5767 111.553 71.6676 111.917 71.8496C112.281 72.0316 112.55 72.3088 112.723 72.6812V71.7163H113.466V74.4331H112.723C112.723 74.1411 112.666 73.866 112.552 73.6079C112.442 73.3455 112.292 73.1191 112.101 72.9287C111.911 72.7383 111.684 72.5902 111.422 72.4844C111.164 72.3743 110.891 72.3193 110.603 72.3193C110.154 72.3193 109.782 72.4251 109.486 72.6367C109.194 72.8483 108.959 73.1255 108.781 73.4683C108.604 73.811 108.477 74.1919 108.4 74.6108C108.328 75.0298 108.292 75.4487 108.292 75.8677C108.292 76.2824 108.328 76.7013 108.4 77.1245C108.477 77.5435 108.604 77.9222 108.781 78.2607C108.959 78.5951 109.194 78.8701 109.486 79.0859C109.782 79.2975 110.154 79.4033 110.603 79.4033C111.636 79.4033 112.355 78.7791 112.761 77.5308L113.517 77.8291ZM119.375 80H115.827V79.2573H117.167V72.459H115.827V71.7163H118.042V79.2573H119.375V80ZM125.292 72.9033H124.111V71.7163H125.292V72.9033ZM126.472 80H122.924V79.2573H124.263V74.8267H122.924V74.084H125.139V79.2573H126.472V80ZM134.534 78.8701C134.284 79.2594 133.941 79.5705 133.505 79.8032C133.074 80.0317 132.56 80.146 131.963 80.146C131.502 80.146 131.078 80.0698 130.693 79.9175C130.308 79.7651 129.978 79.5535 129.703 79.2827C129.432 79.0076 129.221 78.6818 129.068 78.3052C128.916 77.9285 128.84 77.5096 128.84 77.0483C128.84 76.5998 128.91 76.1851 129.049 75.8042C129.189 75.4191 129.388 75.0911 129.646 74.8203C129.904 74.5452 130.219 74.3315 130.592 74.1792C130.968 74.0226 131.385 73.9443 131.842 73.9443C132.024 73.9443 132.21 73.9655 132.401 74.0078C132.591 74.0501 132.771 74.1157 132.94 74.2046C133.11 74.2892 133.262 74.3929 133.397 74.5156C133.533 74.6341 133.634 74.7759 133.702 74.9409V74.084H134.483V76.4517H133.702C133.702 76.1893 133.653 75.9502 133.556 75.7344C133.463 75.5186 133.334 75.3324 133.169 75.1758C133.004 75.0192 132.807 74.8986 132.579 74.814C132.35 74.7251 132.105 74.6807 131.842 74.6807C131.487 74.6807 131.176 74.742 130.909 74.8647C130.647 74.9875 130.427 75.1546 130.249 75.3662C130.071 75.5778 129.936 75.8275 129.843 76.1152C129.754 76.3988 129.709 76.7098 129.709 77.0483C129.709 77.3869 129.76 77.7 129.862 77.9878C129.968 78.2713 130.118 78.5168 130.312 78.7241C130.511 78.9315 130.748 79.0965 131.023 79.2192C131.303 79.342 131.616 79.4033 131.963 79.4033C132.403 79.4033 132.794 79.3166 133.137 79.1431C133.48 78.9696 133.742 78.7389 133.924 78.4512L134.534 78.8701ZM141.84 80H140.602L138.184 77.3467L137.117 78.3242V80H136.248V71.7163H137.117V77.2705L140.488 74.084H141.732L138.768 76.8008L141.84 80ZM156.198 77.061C156.198 77.5223 156.124 77.9412 155.976 78.3179C155.832 78.6945 155.623 79.0182 155.348 79.2891C155.077 79.5557 154.751 79.7651 154.37 79.9175C153.989 80.0698 153.564 80.146 153.094 80.146C152.633 80.146 152.212 80.0698 151.831 79.9175C151.45 79.7651 151.122 79.5557 150.847 79.2891C150.576 79.0182 150.367 78.6945 150.219 78.3179C150.075 77.9412 150.003 77.5223 150.003 77.061C150.003 76.6125 150.075 76.1956 150.219 75.8105C150.367 75.4212 150.576 75.0911 150.847 74.8203C151.122 74.5452 151.45 74.3315 151.831 74.1792C152.212 74.0226 152.633 73.9443 153.094 73.9443C153.564 73.9443 153.989 74.0226 154.37 74.1792C154.751 74.3315 155.077 74.5452 155.348 74.8203C155.623 75.0911 155.832 75.4212 155.976 75.8105C156.124 76.1956 156.198 76.6125 156.198 77.061ZM155.329 77.061C155.329 76.7225 155.278 76.4115 155.176 76.1279C155.079 75.8402 154.933 75.5884 154.738 75.3726C154.544 75.1567 154.307 74.9875 154.027 74.8647C153.752 74.742 153.441 74.6807 153.094 74.6807C152.747 74.6807 152.434 74.742 152.155 74.8647C151.88 74.9875 151.647 75.1567 151.457 75.3726C151.266 75.5884 151.12 75.8402 151.019 76.1279C150.921 76.4115 150.873 76.7225 150.873 77.061C150.873 77.3996 150.921 77.7127 151.019 78.0005C151.12 78.284 151.266 78.5295 151.457 78.7368C151.647 78.9442 151.88 79.1071 152.155 79.2256C152.434 79.3441 152.747 79.4033 153.094 79.4033C153.441 79.4033 153.752 79.3441 154.027 79.2256C154.307 79.1071 154.544 78.9442 154.738 78.7368C154.933 78.5295 155.079 78.284 155.176 78.0005C155.278 77.7127 155.329 77.3996 155.329 77.061ZM162.832 80H161.956V76.3501C161.956 75.8211 161.841 75.4106 161.613 75.1187C161.384 74.8267 161.014 74.6807 160.502 74.6807C160.18 74.6807 159.888 74.7547 159.626 74.9028C159.368 75.0509 159.148 75.2498 158.966 75.4995C158.784 75.745 158.644 76.0285 158.547 76.3501C158.454 76.6675 158.407 76.9997 158.407 77.3467V80H157.538V74.084H158.407V75.5693C158.826 74.486 159.573 73.9443 160.648 73.9443C162.104 73.9443 162.832 74.7463 162.832 76.3501V80ZM177.399 78.1147C177.332 78.7368 177.086 79.2319 176.663 79.6001C176.244 79.964 175.719 80.146 175.089 80.146C174.742 80.146 174.424 80.0889 174.137 79.9746C173.849 79.8604 173.604 79.7017 173.4 79.4985C173.197 79.2954 173.039 79.0521 172.924 78.7686C172.814 78.4808 172.759 78.1676 172.759 77.8291V74.8267H171.42V74.084H172.759V71.7163H173.629V74.084H176.149V74.8267H173.629V77.8291C173.629 78.0449 173.663 78.248 173.73 78.4385C173.802 78.6289 173.9 78.7961 174.022 78.9399C174.149 79.0838 174.302 79.1981 174.479 79.2827C174.657 79.3631 174.86 79.4033 175.089 79.4033C175.521 79.4033 175.88 79.27 176.168 79.0034C176.46 78.7326 176.627 78.3835 176.669 77.9561L177.399 78.1147ZM184.122 80H183.246V76.3501C183.246 75.8211 183.131 75.4106 182.903 75.1187C182.674 74.8267 182.304 74.6807 181.792 74.6807C181.47 74.6807 181.178 74.7547 180.916 74.9028C180.658 75.0509 180.438 75.2498 180.256 75.4995C180.074 75.745 179.934 76.0285 179.837 76.3501C179.744 76.6675 179.697 76.9997 179.697 77.3467V80H178.828V71.7163H179.697V75.5693C180.116 74.486 180.863 73.9443 181.938 73.9443C183.394 73.9443 184.122 74.7463 184.122 76.3501V80ZM185.601 78.4004C185.601 78.028 185.694 77.717 185.88 77.4673C186.066 77.2134 186.309 77.0145 186.61 76.8706C186.915 76.7225 187.262 76.6167 187.651 76.5532C188.044 76.4855 188.444 76.4517 188.851 76.4517C189.007 76.4517 189.147 76.4538 189.27 76.458C189.396 76.4622 189.515 76.4686 189.625 76.4771C189.739 76.4855 189.854 76.4961 189.968 76.5088C190.082 76.5215 190.207 76.5363 190.342 76.5532V76.1279C190.342 75.8402 190.279 75.6032 190.152 75.417C190.029 75.2308 189.877 75.0848 189.695 74.979C189.513 74.869 189.322 74.7928 189.124 74.7505C188.925 74.7039 188.755 74.6807 188.616 74.6807C188.176 74.6807 187.769 74.7399 187.397 74.8584C187.025 74.9769 186.678 75.1356 186.356 75.3345L185.962 74.6807C186.318 74.4648 186.716 74.2892 187.156 74.1538C187.6 74.0142 188.087 73.9443 188.616 73.9443C188.937 73.9443 189.253 73.9867 189.562 74.0713C189.875 74.1517 190.154 74.2786 190.399 74.4521C190.649 74.6214 190.848 74.8457 190.996 75.125C191.144 75.4043 191.218 75.7386 191.218 76.1279V80H190.342V79.0098C190.19 79.2002 190.016 79.3674 189.822 79.5112C189.631 79.6551 189.43 79.7736 189.219 79.8667C189.007 79.9556 188.796 80.0233 188.584 80.0698C188.372 80.1206 188.171 80.146 187.981 80.146C187.198 80.146 186.606 79.9958 186.204 79.6953C185.802 79.3949 185.601 78.9632 185.601 78.4004ZM187.981 79.4033C188.345 79.4033 188.671 79.3504 188.958 79.2446C189.25 79.1346 189.498 78.9992 189.701 78.8384C189.904 78.6776 190.061 78.5062 190.171 78.3242C190.285 78.1423 190.342 77.9772 190.342 77.8291V77.2705C190.059 77.2282 189.786 77.2049 189.523 77.2007C189.265 77.1965 189.041 77.1943 188.851 77.1943C188.537 77.1943 188.235 77.2155 187.943 77.2578C187.655 77.3001 187.403 77.37 187.188 77.4673C186.972 77.5604 186.798 77.6831 186.667 77.8354C186.536 77.9878 186.47 78.1761 186.47 78.4004C186.47 78.6501 186.591 78.8807 186.832 79.0923C187.077 79.2996 187.46 79.4033 187.981 79.4033ZM198.689 78.1147C198.622 78.7368 198.376 79.2319 197.953 79.6001C197.534 79.964 197.009 80.146 196.379 80.146C196.032 80.146 195.715 80.0889 195.427 79.9746C195.139 79.8604 194.894 79.7017 194.69 79.4985C194.487 79.2954 194.329 79.0521 194.214 78.7686C194.104 78.4808 194.049 78.1676 194.049 77.8291V74.8267H192.71V74.084H194.049V71.7163H194.919V74.084H197.439V74.8267H194.919V77.8291C194.919 78.0449 194.953 78.248 195.021 78.4385C195.092 78.6289 195.19 78.7961 195.312 78.9399C195.439 79.0838 195.592 79.1981 195.77 79.2827C195.947 79.3631 196.15 79.4033 196.379 79.4033C196.811 79.4033 197.17 79.27 197.458 79.0034C197.75 78.7326 197.917 78.3835 197.959 77.9561L198.689 78.1147ZM242.374 78.4004C242.374 78.028 242.467 77.717 242.653 77.4673C242.84 77.2134 243.083 77.0145 243.383 76.8706C243.688 76.7225 244.035 76.6167 244.424 76.5532C244.818 76.4855 245.218 76.4517 245.624 76.4517C245.781 76.4517 245.92 76.4538 246.043 76.458C246.17 76.4622 246.288 76.4686 246.398 76.4771C246.513 76.4855 246.627 76.4961 246.741 76.5088C246.855 76.5215 246.98 76.5363 247.116 76.5532V76.1279C247.116 75.8402 247.052 75.6032 246.925 75.417C246.803 75.2308 246.65 75.0848 246.468 74.979C246.286 74.869 246.096 74.7928 245.897 74.7505C245.698 74.7039 245.529 74.6807 245.389 74.6807C244.949 74.6807 244.543 74.7399 244.17 74.8584C243.798 74.9769 243.451 75.1356 243.129 75.3345L242.736 74.6807C243.091 74.4648 243.489 74.2892 243.929 74.1538C244.374 74.0142 244.86 73.9443 245.389 73.9443C245.711 73.9443 246.026 73.9867 246.335 74.0713C246.648 74.1517 246.927 74.2786 247.173 74.4521C247.423 74.6214 247.621 74.8457 247.77 75.125C247.918 75.4043 247.992 75.7386 247.992 76.1279V80H247.116V79.0098C246.963 79.2002 246.79 79.3674 246.595 79.5112C246.405 79.6551 246.204 79.7736 245.992 79.8667C245.781 79.9556 245.569 80.0233 245.357 80.0698C245.146 80.1206 244.945 80.146 244.754 80.146C243.972 80.146 243.379 79.9958 242.977 79.6953C242.575 79.3949 242.374 78.9632 242.374 78.4004ZM244.754 79.4033C245.118 79.4033 245.444 79.3504 245.732 79.2446C246.024 79.1346 246.271 78.9992 246.475 78.8384C246.678 78.6776 246.834 78.5062 246.944 78.3242C247.059 78.1423 247.116 77.9772 247.116 77.8291V77.2705C246.832 77.2282 246.559 77.2049 246.297 77.2007C246.039 77.1965 245.814 77.1943 245.624 77.1943C245.311 77.1943 245.008 77.2155 244.716 77.2578C244.429 77.3001 244.177 77.37 243.961 77.4673C243.745 77.5604 243.572 77.6831 243.44 77.8354C243.309 77.9878 243.244 78.1761 243.244 78.4004C243.244 78.6501 243.364 78.8807 243.605 79.0923C243.851 79.2996 244.234 79.4033 244.754 79.4033ZM255.088 80H254.212V76.3501C254.212 75.8211 254.098 75.4106 253.87 75.1187C253.641 74.8267 253.271 74.6807 252.759 74.6807C252.437 74.6807 252.145 74.7547 251.883 74.9028C251.625 75.0509 251.405 75.2498 251.223 75.4995C251.041 75.745 250.901 76.0285 250.804 76.3501C250.711 76.6675 250.664 76.9997 250.664 77.3467V80H249.794V74.084H250.664V75.5693C251.083 74.486 251.83 73.9443 252.905 73.9443C254.361 73.9443 255.088 74.7463 255.088 76.3501V80ZM262.185 80H261.309V79.4541C261.059 79.6784 260.784 79.8498 260.484 79.9683C260.188 80.0868 259.883 80.146 259.57 80.146C259.1 80.146 258.679 80.0698 258.307 79.9175C257.934 79.7651 257.619 79.5535 257.361 79.2827C257.107 79.0076 256.91 78.6797 256.771 78.2988C256.635 77.918 256.567 77.5011 256.567 77.0483C256.567 76.5998 256.635 76.1851 256.771 75.8042C256.91 75.4191 257.107 75.0911 257.361 74.8203C257.619 74.5452 257.934 74.3315 258.307 74.1792C258.679 74.0226 259.1 73.9443 259.57 73.9443C259.883 73.9443 260.188 74.0015 260.484 74.1157C260.784 74.2257 261.059 74.3929 261.309 74.6172V72.459H260.128V71.7163H262.185V80ZM261.309 75.4614C261.059 75.1864 260.786 74.9875 260.49 74.8647C260.198 74.742 259.887 74.6807 259.557 74.6807C259.21 74.6807 258.903 74.742 258.637 74.8647C258.374 74.9875 258.154 75.1546 257.977 75.3662C257.799 75.5778 257.663 75.8275 257.57 76.1152C257.481 76.3988 257.437 76.7098 257.437 77.0483C257.437 77.3869 257.481 77.7 257.57 77.9878C257.663 78.2713 257.799 78.5189 257.977 78.7305C258.154 78.9421 258.374 79.1092 258.637 79.2319C258.903 79.3547 259.21 79.416 259.557 79.416C260.226 79.416 260.81 79.1515 261.309 78.6226V75.4614ZM276.467 78.8701C276.218 79.2594 275.875 79.5705 275.439 79.8032C275.007 80.0317 274.493 80.146 273.896 80.146C273.435 80.146 273.012 80.0698 272.627 79.9175C272.242 79.7651 271.912 79.5535 271.637 79.2827C271.366 79.0076 271.154 78.6818 271.002 78.3052C270.85 77.9285 270.773 77.5096 270.773 77.0483C270.773 76.5998 270.843 76.1851 270.983 75.8042C271.123 75.4191 271.321 75.0911 271.58 74.8203C271.838 74.5452 272.153 74.3315 272.525 74.1792C272.902 74.0226 273.319 73.9443 273.776 73.9443C273.958 73.9443 274.144 73.9655 274.334 74.0078C274.525 74.0501 274.705 74.1157 274.874 74.2046C275.043 74.2892 275.196 74.3929 275.331 74.5156C275.466 74.6341 275.568 74.7759 275.636 74.9409V74.084H276.417V76.4517H275.636C275.636 76.1893 275.587 75.9502 275.49 75.7344C275.397 75.5186 275.268 75.3324 275.103 75.1758C274.938 75.0192 274.741 74.8986 274.512 74.814C274.284 74.7251 274.038 74.6807 273.776 74.6807C273.42 74.6807 273.109 74.742 272.843 74.8647C272.58 74.9875 272.36 75.1546 272.183 75.3662C272.005 75.5778 271.869 75.8275 271.776 76.1152C271.688 76.3988 271.643 76.7098 271.643 77.0483C271.643 77.3869 271.694 77.7 271.795 77.9878C271.901 78.2713 272.051 78.5168 272.246 78.7241C272.445 78.9315 272.682 79.0965 272.957 79.2192C273.236 79.342 273.549 79.4033 273.896 79.4033C274.337 79.4033 274.728 79.3166 275.071 79.1431C275.414 78.9696 275.676 78.7389 275.858 78.4512L276.467 78.8701ZM283.938 77.061C283.938 77.5223 283.864 77.9412 283.716 78.3179C283.572 78.6945 283.363 79.0182 283.088 79.2891C282.817 79.5557 282.491 79.7651 282.11 79.9175C281.729 80.0698 281.304 80.146 280.834 80.146C280.373 80.146 279.952 80.0698 279.571 79.9175C279.19 79.7651 278.862 79.5557 278.587 79.2891C278.317 79.0182 278.107 78.6945 277.959 78.3179C277.815 77.9412 277.743 77.5223 277.743 77.061C277.743 76.6125 277.815 76.1956 277.959 75.8105C278.107 75.4212 278.317 75.0911 278.587 74.8203C278.862 74.5452 279.19 74.3315 279.571 74.1792C279.952 74.0226 280.373 73.9443 280.834 73.9443C281.304 73.9443 281.729 74.0226 282.11 74.1792C282.491 74.3315 282.817 74.5452 283.088 74.8203C283.363 75.0911 283.572 75.4212 283.716 75.8105C283.864 76.1956 283.938 76.6125 283.938 77.061ZM283.069 77.061C283.069 76.7225 283.018 76.4115 282.917 76.1279C282.819 75.8402 282.673 75.5884 282.479 75.3726C282.284 75.1567 282.047 74.9875 281.768 74.8647C281.493 74.742 281.181 74.6807 280.834 74.6807C280.487 74.6807 280.174 74.742 279.895 74.8647C279.62 74.9875 279.387 75.1567 279.197 75.3726C279.006 75.5884 278.86 75.8402 278.759 76.1279C278.661 76.4115 278.613 76.7225 278.613 77.061C278.613 77.3996 278.661 77.7127 278.759 78.0005C278.86 78.284 279.006 78.5295 279.197 78.7368C279.387 78.9442 279.62 79.1071 279.895 79.2256C280.174 79.3441 280.487 79.4033 280.834 79.4033C281.181 79.4033 281.493 79.3441 281.768 79.2256C282.047 79.1071 282.284 78.9442 282.479 78.7368C282.673 78.5295 282.819 78.284 282.917 78.0005C283.018 77.7127 283.069 77.3996 283.069 77.061ZM290.572 80H289.696V76.3501C289.696 75.8211 289.582 75.4106 289.353 75.1187C289.125 74.8267 288.754 74.6807 288.242 74.6807C287.921 74.6807 287.629 74.7547 287.366 74.9028C287.108 75.0509 286.888 75.2498 286.706 75.4995C286.524 75.745 286.384 76.0285 286.287 76.3501C286.194 76.6675 286.147 76.9997 286.147 77.3467V80H285.278V74.084H286.147V75.5693C286.566 74.486 287.313 73.9443 288.388 73.9443C289.844 73.9443 290.572 74.7463 290.572 76.3501V80ZM297.668 80H296.792V76.3501C296.792 75.8211 296.678 75.4106 296.45 75.1187C296.221 74.8267 295.851 74.6807 295.339 74.6807C295.017 74.6807 294.725 74.7547 294.463 74.9028C294.205 75.0509 293.985 75.2498 293.803 75.4995C293.621 75.745 293.481 76.0285 293.384 76.3501C293.291 76.6675 293.244 76.9997 293.244 77.3467V80H292.375V74.084H293.244V75.5693C293.663 74.486 294.41 73.9443 295.485 73.9443C296.941 73.9443 297.668 74.7463 297.668 76.3501V80ZM300.03 77.3467C300.093 77.973 300.322 78.4723 300.715 78.8447C301.109 79.2171 301.621 79.4033 302.251 79.4033C302.696 79.4033 303.091 79.3123 303.438 79.1304C303.785 78.9484 304.046 78.722 304.219 78.4512L304.829 78.8701C304.532 79.2848 304.179 79.6022 303.769 79.8223C303.358 80.0381 302.852 80.146 302.251 80.146C301.794 80.146 301.375 80.0698 300.995 79.9175C300.614 79.7651 300.284 79.5535 300.004 79.2827C299.729 79.0076 299.516 78.6818 299.363 78.3052C299.211 77.9285 299.135 77.5096 299.135 77.0483C299.135 76.5998 299.202 76.1872 299.338 75.8105C299.478 75.4297 299.676 75.1017 299.935 74.8267C300.197 74.5474 300.514 74.3315 300.887 74.1792C301.259 74.0226 301.676 73.9443 302.137 73.9443C302.641 73.9443 303.081 74.029 303.458 74.1982C303.834 74.3675 304.147 74.6024 304.397 74.9028C304.651 75.1991 304.837 75.5545 304.956 75.9692C305.078 76.384 305.14 76.8431 305.14 77.3467H300.03ZM304.219 76.604C304.122 75.9565 303.887 75.4741 303.515 75.1567C303.142 74.8394 302.683 74.6807 302.137 74.6807C301.858 74.6807 301.6 74.7272 301.363 74.8203C301.126 74.9092 300.916 75.0382 300.734 75.2075C300.552 75.3768 300.4 75.582 300.277 75.8232C300.155 76.0602 300.076 76.3205 300.042 76.604H304.219ZM311.951 78.8701C311.701 79.2594 311.358 79.5705 310.922 79.8032C310.491 80.0317 309.977 80.146 309.38 80.146C308.919 80.146 308.495 80.0698 308.11 79.9175C307.725 79.7651 307.395 79.5535 307.12 79.2827C306.849 79.0076 306.638 78.6818 306.485 78.3052C306.333 77.9285 306.257 77.5096 306.257 77.0483C306.257 76.5998 306.327 76.1851 306.466 75.8042C306.606 75.4191 306.805 75.0911 307.063 74.8203C307.321 74.5452 307.636 74.3315 308.009 74.1792C308.385 74.0226 308.802 73.9443 309.259 73.9443C309.441 73.9443 309.627 73.9655 309.818 74.0078C310.008 74.0501 310.188 74.1157 310.357 74.2046C310.527 74.2892 310.679 74.3929 310.814 74.5156C310.95 74.6341 311.051 74.7759 311.119 74.9409V74.084H311.9V76.4517H311.119C311.119 76.1893 311.07 75.9502 310.973 75.7344C310.88 75.5186 310.751 75.3324 310.586 75.1758C310.421 75.0192 310.224 74.8986 309.996 74.814C309.767 74.7251 309.522 74.6807 309.259 74.6807C308.904 74.6807 308.593 74.742 308.326 74.8647C308.064 74.9875 307.844 75.1546 307.666 75.3662C307.488 75.5778 307.353 75.8275 307.26 76.1152C307.171 76.3988 307.126 76.7098 307.126 77.0483C307.126 77.3869 307.177 77.7 307.279 77.9878C307.385 78.2713 307.535 78.5168 307.729 78.7241C307.928 78.9315 308.165 79.0965 308.44 79.2192C308.72 79.342 309.033 79.4033 309.38 79.4033C309.82 79.4033 310.211 79.3166 310.554 79.1431C310.897 78.9696 311.159 78.7389 311.341 78.4512L311.951 78.8701ZM319.333 78.1147C319.265 78.7368 319.02 79.2319 318.597 79.6001C318.178 79.964 317.653 80.146 317.022 80.146C316.675 80.146 316.358 80.0889 316.07 79.9746C315.783 79.8604 315.537 79.7017 315.334 79.4985C315.131 79.2954 314.972 79.0521 314.858 78.7686C314.748 78.4808 314.693 78.1676 314.693 77.8291V74.8267H313.354V74.084H314.693V71.7163H315.562V74.084H318.083V74.8267H315.562V77.8291C315.562 78.0449 315.596 78.248 315.664 78.4385C315.736 78.6289 315.833 78.7961 315.956 78.9399C316.083 79.0838 316.235 79.1981 316.413 79.2827C316.591 79.3631 316.794 79.4033 317.022 79.4033C317.454 79.4033 317.814 79.27 318.102 79.0034C318.394 78.7326 318.561 78.3835 318.603 77.9561L319.333 78.1147ZM103.005 87.084L99.8057 94.498C99.6406 94.9128 99.4079 95.1836 99.1074 95.3105C98.807 95.4417 98.4748 95.5073 98.1108 95.5073C97.7046 95.5073 97.2983 95.4333 96.8921 95.2852L97.0635 94.5361C97.2624 94.6208 97.457 94.68 97.6475 94.7139C97.8379 94.752 97.9924 94.771 98.1108 94.771C98.3986 94.771 98.5954 94.7012 98.7012 94.5615C98.8112 94.4219 98.9064 94.2568 98.9868 94.0664L99.3486 93.1714L96.708 87.084H97.7363L99.8691 92.2573L101.964 87.084H103.005ZM110.07 90.061C110.07 90.5223 109.996 90.9412 109.848 91.3179C109.704 91.6945 109.494 92.0182 109.219 92.2891C108.948 92.5557 108.623 92.7651 108.242 92.9175C107.861 93.0698 107.436 93.146 106.966 93.146C106.505 93.146 106.083 93.0698 105.703 92.9175C105.322 92.7651 104.994 92.5557 104.719 92.2891C104.448 92.0182 104.238 91.6945 104.09 91.3179C103.946 90.9412 103.875 90.5223 103.875 90.061C103.875 89.6125 103.946 89.1956 104.09 88.8105C104.238 88.4212 104.448 88.0911 104.719 87.8203C104.994 87.5452 105.322 87.3315 105.703 87.1792C106.083 87.0226 106.505 86.9443 106.966 86.9443C107.436 86.9443 107.861 87.0226 108.242 87.1792C108.623 87.3315 108.948 87.5452 109.219 87.8203C109.494 88.0911 109.704 88.4212 109.848 88.8105C109.996 89.1956 110.07 89.6125 110.07 90.061ZM109.2 90.061C109.2 89.7225 109.149 89.4115 109.048 89.1279C108.951 88.8402 108.805 88.5884 108.61 88.3726C108.415 88.1567 108.178 87.9875 107.899 87.8647C107.624 87.742 107.313 87.6807 106.966 87.6807C106.619 87.6807 106.306 87.742 106.026 87.8647C105.751 87.9875 105.519 88.1567 105.328 88.3726C105.138 88.5884 104.992 88.8402 104.89 89.1279C104.793 89.4115 104.744 89.7225 104.744 90.061C104.744 90.3996 104.793 90.7127 104.89 91.0005C104.992 91.284 105.138 91.5295 105.328 91.7368C105.519 91.9442 105.751 92.1071 106.026 92.2256C106.306 92.3441 106.619 92.4033 106.966 92.4033C107.313 92.4033 107.624 92.3441 107.899 92.2256C108.178 92.1071 108.415 91.9442 108.61 91.7368C108.805 91.5295 108.951 91.284 109.048 91.0005C109.149 90.7127 109.2 90.3996 109.2 90.061ZM111.409 87.084H112.279V90.7402C112.279 91.2692 112.393 91.6797 112.622 91.9717C112.854 92.2594 113.227 92.4033 113.739 92.4033C114.06 92.4033 114.35 92.3293 114.608 92.1812C114.867 92.033 115.087 91.8363 115.269 91.5908C115.451 91.3411 115.588 91.0576 115.681 90.7402C115.778 90.4186 115.827 90.0843 115.827 89.7373V87.084H116.703V93H115.827V91.521C115.412 92.6043 114.668 93.146 113.593 93.146C112.137 93.146 111.409 92.3441 111.409 90.7402V87.084ZM123.787 87.9155C123.474 87.759 123.102 87.6807 122.67 87.6807C122.314 87.6807 121.997 87.7568 121.718 87.9092C121.438 88.0615 121.201 88.2625 121.007 88.5122C120.812 88.7576 120.662 89.0412 120.556 89.3628C120.455 89.6802 120.404 90.0081 120.404 90.3467V92.2573H121.743V93H118.195V92.2573H119.534V87.8267H118.195V87.084H120.404V88.5693C120.802 87.486 121.557 86.9443 122.67 86.9443C122.97 86.9443 123.231 86.9634 123.451 87.0015C123.675 87.0396 123.882 87.1073 124.073 87.2046L123.787 87.9155ZM131.049 91.3623C131.049 91.7093 130.962 91.9971 130.789 92.2256C130.615 92.4541 130.391 92.6361 130.116 92.7715C129.845 92.9069 129.54 93.0021 129.202 93.0571C128.867 93.1164 128.539 93.146 128.218 93.146C127.68 93.146 127.145 93.0677 126.612 92.9111C126.079 92.7546 125.617 92.5493 125.228 92.2954L125.615 91.5464C126.051 91.8215 126.481 92.033 126.904 92.1812C127.327 92.3293 127.765 92.4033 128.218 92.4033C129.525 92.4033 130.179 92.0648 130.179 91.3877C130.179 91.2227 130.124 91.0894 130.014 90.9878C129.908 90.882 129.764 90.7974 129.583 90.7339C129.401 90.6662 129.191 90.6133 128.954 90.5752C128.721 90.5371 128.476 90.5011 128.218 90.4673C127.888 90.4207 127.56 90.3657 127.234 90.3022C126.908 90.2388 126.61 90.1436 126.339 90.0166C126.072 89.8896 125.856 89.7204 125.691 89.5088C125.531 89.2972 125.45 89.0179 125.45 88.6709C125.45 88.3747 125.524 88.1187 125.672 87.9028C125.825 87.687 126.026 87.5072 126.275 87.3633C126.529 87.2194 126.826 87.1136 127.164 87.0459C127.503 86.9782 127.854 86.9443 128.218 86.9443C128.738 86.9443 129.204 87.0057 129.614 87.1284C130.025 87.2469 130.395 87.4183 130.725 87.6426L130.376 88.3218C130.037 88.0848 129.695 87.9198 129.348 87.8267C129.001 87.7293 128.624 87.6807 128.218 87.6807C128.036 87.6807 127.833 87.6976 127.608 87.7314C127.388 87.7611 127.183 87.8161 126.993 87.8965C126.802 87.9727 126.641 88.0742 126.51 88.2012C126.383 88.3239 126.32 88.4805 126.32 88.6709C126.32 88.8359 126.373 88.9692 126.479 89.0708C126.589 89.1681 126.735 89.2507 126.917 89.3184C127.098 89.3818 127.306 89.4326 127.539 89.4707C127.776 89.5088 128.023 89.5448 128.281 89.5786C128.603 89.6252 128.927 89.6802 129.252 89.7437C129.583 89.8071 129.881 89.9002 130.147 90.0229C130.418 90.1457 130.636 90.3128 130.801 90.5244C130.966 90.736 131.049 91.0153 131.049 91.3623ZM133.258 90.3467C133.321 90.973 133.55 91.4723 133.943 91.8447C134.337 92.2171 134.849 92.4033 135.479 92.4033C135.924 92.4033 136.319 92.3123 136.667 92.1304C137.014 91.9484 137.274 91.722 137.447 91.4512L138.057 91.8701C137.76 92.2848 137.407 92.6022 136.997 92.8223C136.586 93.0381 136.08 93.146 135.479 93.146C135.022 93.146 134.604 93.0698 134.223 92.9175C133.842 92.7651 133.512 92.5535 133.232 92.2827C132.957 92.0076 132.744 91.6818 132.591 91.3052C132.439 90.9285 132.363 90.5096 132.363 90.0483C132.363 89.5998 132.431 89.1872 132.566 88.8105C132.706 88.4297 132.904 88.1017 133.163 87.8267C133.425 87.5474 133.742 87.3315 134.115 87.1792C134.487 87.0226 134.904 86.9443 135.365 86.9443C135.869 86.9443 136.309 87.029 136.686 87.1982C137.062 87.3675 137.375 87.6024 137.625 87.9028C137.879 88.1991 138.065 88.5545 138.184 88.9692C138.306 89.384 138.368 89.8431 138.368 90.3467H133.258ZM137.447 89.604C137.35 88.9565 137.115 88.4741 136.743 88.1567C136.37 87.8394 135.911 87.6807 135.365 87.6807C135.086 87.6807 134.828 87.7272 134.591 87.8203C134.354 87.9092 134.144 88.0382 133.962 88.2075C133.78 88.3768 133.628 88.582 133.505 88.8232C133.383 89.0602 133.304 89.3205 133.271 89.604H137.447ZM144.214 93H140.666V92.2573H142.005V85.459H140.666V84.7163H142.881V92.2573H144.214V93ZM152.498 87.8267H149.978V92.2573H151.311V93H147.762V92.2573H149.102V87.8267H147.762V87.084H149.102C149.102 86.2715 149.311 85.6515 149.73 85.2241C150.153 84.7925 150.79 84.5767 151.641 84.5767C151.84 84.5767 152.007 84.583 152.142 84.5957C152.282 84.6084 152.4 84.6232 152.498 84.6401V85.3828C152.375 85.3659 152.246 85.3511 152.11 85.3384C151.979 85.3257 151.823 85.3193 151.641 85.3193C151.086 85.3193 150.669 85.4611 150.39 85.7446C150.115 86.0239 149.978 86.4704 149.978 87.084H152.498V87.8267ZM166.691 90.0483C166.691 90.5011 166.621 90.918 166.481 91.2988C166.342 91.6797 166.141 92.0076 165.878 92.2827C165.62 92.5535 165.307 92.7651 164.939 92.9175C164.571 93.0698 164.158 93.146 163.701 93.146C163.38 93.146 163.071 93.0889 162.774 92.9746C162.482 92.8604 162.209 92.6911 161.956 92.4668V93H161.086V84.7163H161.956V87.6299C162.209 87.4141 162.482 87.2469 162.774 87.1284C163.071 87.0057 163.38 86.9443 163.701 86.9443C164.158 86.9443 164.571 87.0226 164.939 87.1792C165.307 87.3315 165.62 87.5452 165.878 87.8203C166.141 88.0911 166.342 88.4191 166.481 88.8042C166.621 89.1851 166.691 89.5998 166.691 90.0483ZM165.809 90.0483C165.809 89.7098 165.764 89.3988 165.675 89.1152C165.591 88.8275 165.459 88.5778 165.282 88.3662C165.104 88.1546 164.882 87.9875 164.615 87.8647C164.353 87.742 164.048 87.6807 163.701 87.6807C163.033 87.6807 162.451 87.9451 161.956 88.4741V91.6353C162.209 91.9103 162.48 92.1071 162.768 92.2256C163.06 92.3441 163.371 92.4033 163.701 92.4033C164.048 92.4033 164.351 92.342 164.609 92.2192C164.871 92.0965 165.091 91.9294 165.269 91.7178C165.447 91.5062 165.58 91.2586 165.669 90.9751C165.762 90.6873 165.809 90.3784 165.809 90.0483ZM167.859 91.4004C167.859 91.028 167.952 90.717 168.138 90.4673C168.324 90.2134 168.568 90.0145 168.868 89.8706C169.173 89.7225 169.52 89.6167 169.909 89.5532C170.303 89.4855 170.703 89.4517 171.109 89.4517C171.265 89.4517 171.405 89.4538 171.528 89.458C171.655 89.4622 171.773 89.4686 171.883 89.4771C171.998 89.4855 172.112 89.4961 172.226 89.5088C172.34 89.5215 172.465 89.5363 172.601 89.5532V89.1279C172.601 88.8402 172.537 88.6032 172.41 88.417C172.287 88.2308 172.135 88.0848 171.953 87.979C171.771 87.869 171.581 87.7928 171.382 87.7505C171.183 87.7039 171.014 87.6807 170.874 87.6807C170.434 87.6807 170.028 87.7399 169.655 87.8584C169.283 87.9769 168.936 88.1356 168.614 88.3345L168.221 87.6807C168.576 87.4648 168.974 87.2892 169.414 87.1538C169.858 87.0142 170.345 86.9443 170.874 86.9443C171.196 86.9443 171.511 86.9867 171.82 87.0713C172.133 87.1517 172.412 87.2786 172.658 87.4521C172.907 87.6214 173.106 87.8457 173.254 88.125C173.403 88.4043 173.477 88.7386 173.477 89.1279V93H172.601V92.0098C172.448 92.2002 172.275 92.3674 172.08 92.5112C171.89 92.6551 171.689 92.7736 171.477 92.8667C171.265 92.9556 171.054 93.0233 170.842 93.0698C170.631 93.1206 170.43 93.146 170.239 93.146C169.456 93.146 168.864 92.9958 168.462 92.6953C168.06 92.3949 167.859 91.9632 167.859 91.4004ZM170.239 92.4033C170.603 92.4033 170.929 92.3504 171.217 92.2446C171.509 92.1346 171.756 91.9992 171.959 91.8384C172.163 91.6776 172.319 91.5062 172.429 91.3242C172.543 91.1423 172.601 90.9772 172.601 90.8291V90.2705C172.317 90.2282 172.044 90.2049 171.782 90.2007C171.524 90.1965 171.299 90.1943 171.109 90.1943C170.796 90.1943 170.493 90.2155 170.201 90.2578C169.913 90.3001 169.662 90.37 169.446 90.4673C169.23 90.5604 169.056 90.6831 168.925 90.8354C168.794 90.9878 168.729 91.1761 168.729 91.4004C168.729 91.6501 168.849 91.8807 169.09 92.0923C169.336 92.2996 169.719 92.4033 170.239 92.4033ZM180.662 91.8701C180.412 92.2594 180.07 92.5705 179.634 92.8032C179.202 93.0317 178.688 93.146 178.091 93.146C177.63 93.146 177.207 93.0698 176.822 92.9175C176.437 92.7651 176.107 92.5535 175.832 92.2827C175.561 92.0076 175.349 91.6818 175.197 91.3052C175.044 90.9285 174.968 90.5096 174.968 90.0483C174.968 89.5998 175.038 89.1851 175.178 88.8042C175.317 88.4191 175.516 88.0911 175.774 87.8203C176.033 87.5452 176.348 87.3315 176.72 87.1792C177.097 87.0226 177.514 86.9443 177.971 86.9443C178.153 86.9443 178.339 86.9655 178.529 87.0078C178.72 87.0501 178.9 87.1157 179.069 87.2046C179.238 87.2892 179.39 87.3929 179.526 87.5156C179.661 87.6341 179.763 87.7759 179.831 87.9409V87.084H180.611V89.4517H179.831C179.831 89.1893 179.782 88.9502 179.685 88.7344C179.591 88.5186 179.462 88.3324 179.297 88.1758C179.132 88.0192 178.936 87.8986 178.707 87.814C178.479 87.7251 178.233 87.6807 177.971 87.6807C177.615 87.6807 177.304 87.742 177.038 87.8647C176.775 87.9875 176.555 88.1546 176.377 88.3662C176.2 88.5778 176.064 88.8275 175.971 89.1152C175.882 89.3988 175.838 89.7098 175.838 90.0483C175.838 90.3869 175.889 90.7 175.99 90.9878C176.096 91.2713 176.246 91.5168 176.441 91.7241C176.64 91.9315 176.877 92.0965 177.152 92.2192C177.431 92.342 177.744 92.4033 178.091 92.4033C178.531 92.4033 178.923 92.3166 179.266 92.1431C179.608 91.9696 179.871 91.7389 180.053 91.4512L180.662 91.8701ZM187.968 93H186.73L184.312 90.3467L183.246 91.3242V93H182.376V84.7163H183.246V90.2705L186.616 87.084H187.86L184.896 89.8008L187.968 93ZM202.238 91.1147C202.17 91.7368 201.925 92.2319 201.501 92.6001C201.083 92.964 200.558 93.146 199.927 93.146C199.58 93.146 199.263 93.0889 198.975 92.9746C198.687 92.8604 198.442 92.7017 198.239 92.4985C198.036 92.2954 197.877 92.0521 197.763 91.7686C197.653 91.4808 197.598 91.1676 197.598 90.8291V87.8267H196.258V87.084H197.598V84.7163H198.467V87.084H200.987V87.8267H198.467V90.8291C198.467 91.0449 198.501 91.248 198.569 91.4385C198.641 91.6289 198.738 91.7961 198.861 91.9399C198.988 92.0838 199.14 92.1981 199.318 92.2827C199.496 92.3631 199.699 92.4033 199.927 92.4033C200.359 92.4033 200.719 92.27 201.006 92.0034C201.298 91.7326 201.465 91.3835 201.508 90.9561L202.238 91.1147ZM209.423 90.061C209.423 90.5223 209.349 90.9412 209.201 91.3179C209.057 91.6945 208.848 92.0182 208.573 92.2891C208.302 92.5557 207.976 92.7651 207.595 92.9175C207.214 93.0698 206.789 93.146 206.319 93.146C205.858 93.146 205.437 93.0698 205.056 92.9175C204.675 92.7651 204.347 92.5557 204.072 92.2891C203.801 92.0182 203.592 91.6945 203.444 91.3179C203.3 90.9412 203.228 90.5223 203.228 90.061C203.228 89.6125 203.3 89.1956 203.444 88.8105C203.592 88.4212 203.801 88.0911 204.072 87.8203C204.347 87.5452 204.675 87.3315 205.056 87.1792C205.437 87.0226 205.858 86.9443 206.319 86.9443C206.789 86.9443 207.214 87.0226 207.595 87.1792C207.976 87.3315 208.302 87.5452 208.573 87.8203C208.848 88.0911 209.057 88.4212 209.201 88.8105C209.349 89.1956 209.423 89.6125 209.423 90.061ZM208.554 90.061C208.554 89.7225 208.503 89.4115 208.401 89.1279C208.304 88.8402 208.158 88.5884 207.963 88.3726C207.769 88.1567 207.532 87.9875 207.252 87.8647C206.977 87.742 206.666 87.6807 206.319 87.6807C205.972 87.6807 205.659 87.742 205.38 87.8647C205.105 87.9875 204.872 88.1567 204.682 88.3726C204.491 88.5884 204.345 88.8402 204.244 89.1279C204.146 89.4115 204.098 89.7225 204.098 90.061C204.098 90.3996 204.146 90.7127 204.244 91.0005C204.345 91.284 204.491 91.5295 204.682 91.7368C204.872 91.9442 205.105 92.1071 205.38 92.2256C205.659 92.3441 205.972 92.4033 206.319 92.4033C206.666 92.4033 206.977 92.3441 207.252 92.2256C207.532 92.1071 207.769 91.9442 207.963 91.7368C208.158 91.5295 208.304 91.284 208.401 91.0005C208.503 90.7127 208.554 90.3996 208.554 90.061ZM223.255 90.8418C223.255 91.1888 223.183 91.5041 223.039 91.7876C222.895 92.0669 222.703 92.3081 222.461 92.5112C222.22 92.7144 221.943 92.8709 221.63 92.981C221.317 93.091 220.991 93.146 220.652 93.146C220.187 93.146 219.759 93.0592 219.37 92.8857C218.981 92.7122 218.672 92.4562 218.443 92.1177V93H217.707V90.48H218.443C218.443 90.7635 218.509 91.0238 218.64 91.2607C218.771 91.4935 218.938 91.6945 219.142 91.8638C219.345 92.033 219.577 92.1663 219.84 92.2637C220.106 92.3568 220.377 92.4033 220.652 92.4033C220.898 92.4033 221.124 92.3695 221.332 92.3018C221.539 92.2298 221.721 92.1304 221.877 92.0034C222.034 91.8722 222.157 91.7135 222.246 91.5273C222.339 91.3411 222.385 91.1296 222.385 90.8926C222.385 90.626 222.326 90.3975 222.208 90.207C222.093 90.0166 221.937 89.8537 221.738 89.7183C221.543 89.5828 221.323 89.4686 221.078 89.3755C220.832 89.2782 220.583 89.1829 220.329 89.0898C220.028 88.984 219.728 88.874 219.427 88.7598C219.127 88.6413 218.858 88.4932 218.621 88.3154C218.384 88.1377 218.192 87.9219 218.043 87.668C217.895 87.4098 217.821 87.0903 217.821 86.7095C217.821 86.3709 217.893 86.0705 218.037 85.8081C218.181 85.5415 218.369 85.3172 218.602 85.1353C218.835 84.9533 219.106 84.8158 219.415 84.7227C219.723 84.6253 220.041 84.5767 220.367 84.5767C220.769 84.5767 221.139 84.6592 221.478 84.8242C221.82 84.9893 222.087 85.241 222.277 85.5796V84.7163H223.045V87.084H222.277C222.277 86.8343 222.224 86.6016 222.119 86.3857C222.017 86.1657 221.877 85.9795 221.7 85.8271C221.522 85.6706 221.319 85.5479 221.09 85.459C220.862 85.3659 220.621 85.3193 220.367 85.3193C220.142 85.3193 219.929 85.3447 219.726 85.3955C219.522 85.4463 219.345 85.5288 219.192 85.6431C219.04 85.7531 218.917 85.897 218.824 86.0747C218.735 86.2524 218.691 86.464 218.691 86.7095C218.691 86.9253 218.744 87.1094 218.85 87.2617C218.96 87.4141 219.106 87.5495 219.288 87.668C219.47 87.7822 219.679 87.888 219.916 87.9854C220.157 88.0785 220.403 88.1737 220.652 88.271C220.965 88.381 221.277 88.5037 221.585 88.6392C221.894 88.7746 222.172 88.9375 222.417 89.1279C222.662 89.3184 222.863 89.5532 223.02 89.8325C223.177 90.1076 223.255 90.444 223.255 90.8418ZM230.561 90.0483C230.561 90.5096 230.489 90.9285 230.345 91.3052C230.201 91.6818 229.998 92.0076 229.736 92.2827C229.478 92.5535 229.165 92.7651 228.796 92.9175C228.428 93.0698 228.016 93.146 227.559 93.146C227.245 93.146 226.941 93.0889 226.645 92.9746C226.353 92.8604 226.08 92.6911 225.826 92.4668V95.3677H224.956V87.084H225.826V87.6299C226.363 87.1729 226.941 86.9443 227.559 86.9443C228.016 86.9443 228.428 87.0205 228.796 87.1729C229.165 87.321 229.478 87.5347 229.736 87.814C229.998 88.089 230.201 88.4191 230.345 88.8042C230.489 89.1851 230.561 89.5998 230.561 90.0483ZM229.691 90.0483C229.691 89.7183 229.645 89.4093 229.552 89.1216C229.463 88.8296 229.327 88.5778 229.146 88.3662C228.964 88.1546 228.739 87.9875 228.473 87.8647C228.21 87.742 227.906 87.6807 227.559 87.6807C227.229 87.6807 226.92 87.742 226.632 87.8647C226.348 87.9875 226.08 88.1864 225.826 88.4614V91.6353C226.08 91.9103 226.348 92.1071 226.632 92.2256C226.92 92.3441 227.229 92.4033 227.559 92.4033C227.906 92.4033 228.21 92.342 228.473 92.2192C228.739 92.0965 228.964 91.9294 229.146 91.7178C229.327 91.5062 229.463 91.2586 229.552 90.9751C229.645 90.6873 229.691 90.3784 229.691 90.0483ZM237.81 90.061C237.81 90.5223 237.736 90.9412 237.588 91.3179C237.444 91.6945 237.235 92.0182 236.959 92.2891C236.689 92.5557 236.363 92.7651 235.982 92.9175C235.601 93.0698 235.176 93.146 234.706 93.146C234.245 93.146 233.824 93.0698 233.443 92.9175C233.062 92.7651 232.734 92.5557 232.459 92.2891C232.188 92.0182 231.979 91.6945 231.831 91.3179C231.687 90.9412 231.615 90.5223 231.615 90.061C231.615 89.6125 231.687 89.1956 231.831 88.8105C231.979 88.4212 232.188 88.0911 232.459 87.8203C232.734 87.5452 233.062 87.3315 233.443 87.1792C233.824 87.0226 234.245 86.9443 234.706 86.9443C235.176 86.9443 235.601 87.0226 235.982 87.1792C236.363 87.3315 236.689 87.5452 236.959 87.8203C237.235 88.0911 237.444 88.4212 237.588 88.8105C237.736 89.1956 237.81 89.6125 237.81 90.061ZM236.94 90.061C236.94 89.7225 236.89 89.4115 236.788 89.1279C236.691 88.8402 236.545 88.5884 236.35 88.3726C236.155 88.1567 235.918 87.9875 235.639 87.8647C235.364 87.742 235.053 87.6807 234.706 87.6807C234.359 87.6807 234.046 87.742 233.767 87.8647C233.492 87.9875 233.259 88.1567 233.068 88.3726C232.878 88.5884 232.732 88.8402 232.63 89.1279C232.533 89.4115 232.484 89.7225 232.484 90.061C232.484 90.3996 232.533 90.7127 232.63 91.0005C232.732 91.284 232.878 91.5295 233.068 91.7368C233.259 91.9442 233.492 92.1071 233.767 92.2256C234.046 92.3441 234.359 92.4033 234.706 92.4033C235.053 92.4033 235.364 92.3441 235.639 92.2256C235.918 92.1071 236.155 91.9442 236.35 91.7368C236.545 91.5295 236.691 91.284 236.788 91.0005C236.89 90.7127 236.94 90.3996 236.94 90.061ZM244.818 91.1147C244.75 91.7368 244.505 92.2319 244.082 92.6001C243.663 92.964 243.138 93.146 242.507 93.146C242.16 93.146 241.843 93.0889 241.555 92.9746C241.267 92.8604 241.022 92.7017 240.819 92.4985C240.616 92.2954 240.457 92.0521 240.343 91.7686C240.233 91.4808 240.178 91.1676 240.178 90.8291V87.8267H238.838V87.084H240.178V84.7163H241.047V87.084H243.567V87.8267H241.047V90.8291C241.047 91.0449 241.081 91.248 241.149 91.4385C241.221 91.6289 241.318 91.7961 241.441 91.9399C241.568 92.0838 241.72 92.1981 241.898 92.2827C242.076 92.3631 242.279 92.4033 242.507 92.4033C242.939 92.4033 243.299 92.27 243.586 92.0034C243.878 91.7326 244.046 91.3835 244.088 90.9561L244.818 91.1147ZM249.483 85.9033H248.303V84.7163H249.483V85.9033ZM250.664 93H247.116V92.2573H248.455V87.8267H247.116V87.084H249.331V92.2573H250.664V93ZM258.948 87.8267H256.428V92.2573H257.761V93H254.212V92.2573H255.552V87.8267H254.212V87.084H255.552C255.552 86.2715 255.761 85.6515 256.18 85.2241C256.603 84.7925 257.24 84.5767 258.091 84.5767C258.29 84.5767 258.457 84.583 258.592 84.5957C258.732 84.6084 258.85 84.6232 258.948 84.6401V85.3828C258.825 85.3659 258.696 85.3511 258.561 85.3384C258.429 85.3257 258.273 85.3193 258.091 85.3193C257.536 85.3193 257.12 85.4611 256.84 85.7446C256.565 86.0239 256.428 86.4704 256.428 87.084H258.948V87.8267ZM266.229 87.084L263.029 94.498C262.864 94.9128 262.632 95.1836 262.331 95.3105C262.031 95.4417 261.698 95.5073 261.334 95.5073C260.928 95.5073 260.522 95.4333 260.116 95.2852L260.287 94.5361C260.486 94.6208 260.681 94.68 260.871 94.7139C261.062 94.752 261.216 94.771 261.334 94.771C261.622 94.771 261.819 94.7012 261.925 94.5615C262.035 94.4219 262.13 94.2568 262.21 94.0664L262.572 93.1714L259.932 87.084H260.96L263.093 92.2573L265.188 87.084H266.229ZM280.301 91.1147C280.234 91.7368 279.988 92.2319 279.565 92.6001C279.146 92.964 278.621 93.146 277.991 93.146C277.644 93.146 277.326 93.0889 277.039 92.9746C276.751 92.8604 276.505 92.7017 276.302 92.4985C276.099 92.2954 275.94 92.0521 275.826 91.7686C275.716 91.4808 275.661 91.1676 275.661 90.8291V87.8267H274.322V87.084H275.661V84.7163H276.531V87.084H279.051V87.8267H276.531V90.8291C276.531 91.0449 276.565 91.248 276.632 91.4385C276.704 91.6289 276.802 91.7961 276.924 91.9399C277.051 92.0838 277.204 92.1981 277.381 92.2827C277.559 92.3631 277.762 92.4033 277.991 92.4033C278.422 92.4033 278.782 92.27 279.07 92.0034C279.362 91.7326 279.529 91.3835 279.571 90.9561L280.301 91.1147ZM287.487 90.061C287.487 90.5223 287.413 90.9412 287.265 91.3179C287.121 91.6945 286.911 92.0182 286.636 92.2891C286.365 92.5557 286.04 92.7651 285.659 92.9175C285.278 93.0698 284.853 93.146 284.383 93.146C283.922 93.146 283.5 93.0698 283.12 92.9175C282.739 92.7651 282.411 92.5557 282.136 92.2891C281.865 92.0182 281.655 91.6945 281.507 91.3179C281.363 90.9412 281.292 90.5223 281.292 90.061C281.292 89.6125 281.363 89.1956 281.507 88.8105C281.655 88.4212 281.865 88.0911 282.136 87.8203C282.411 87.5452 282.739 87.3315 283.12 87.1792C283.5 87.0226 283.922 86.9443 284.383 86.9443C284.853 86.9443 285.278 87.0226 285.659 87.1792C286.04 87.3315 286.365 87.5452 286.636 87.8203C286.911 88.0911 287.121 88.4212 287.265 88.8105C287.413 89.1956 287.487 89.6125 287.487 90.061ZM286.617 90.061C286.617 89.7225 286.566 89.4115 286.465 89.1279C286.368 88.8402 286.222 88.5884 286.027 88.3726C285.832 88.1567 285.595 87.9875 285.316 87.8647C285.041 87.742 284.73 87.6807 284.383 87.6807C284.036 87.6807 283.723 87.742 283.443 87.8647C283.168 87.9875 282.936 88.1567 282.745 88.3726C282.555 88.5884 282.409 88.8402 282.307 89.1279C282.21 89.4115 282.161 89.7225 282.161 90.061C282.161 90.3996 282.21 90.7127 282.307 91.0005C282.409 91.284 282.555 91.5295 282.745 91.7368C282.936 91.9442 283.168 92.1071 283.443 92.2256C283.723 92.3441 284.036 92.4033 284.383 92.4033C284.73 92.4033 285.041 92.3441 285.316 92.2256C285.595 92.1071 285.832 91.9442 286.027 91.7368C286.222 91.5295 286.368 91.284 286.465 91.0005C286.566 90.7127 286.617 90.3996 286.617 90.061ZM296.481 90.3467C296.545 90.973 296.773 91.4723 297.167 91.8447C297.561 92.2171 298.073 92.4033 298.703 92.4033C299.147 92.4033 299.543 92.3123 299.89 92.1304C300.237 91.9484 300.497 91.722 300.671 91.4512L301.28 91.8701C300.984 92.2848 300.631 92.6022 300.22 92.8223C299.81 93.0381 299.304 93.146 298.703 93.146C298.246 93.146 297.827 93.0698 297.446 92.9175C297.065 92.7651 296.735 92.5535 296.456 92.2827C296.181 92.0076 295.967 91.6818 295.815 91.3052C295.663 90.9285 295.586 90.5096 295.586 90.0483C295.586 89.5998 295.654 89.1872 295.79 88.8105C295.929 88.4297 296.128 88.1017 296.386 87.8267C296.649 87.5474 296.966 87.3315 297.338 87.1792C297.711 87.0226 298.128 86.9443 298.589 86.9443C299.092 86.9443 299.533 87.029 299.909 87.1982C300.286 87.3675 300.599 87.6024 300.849 87.9028C301.103 88.1991 301.289 88.5545 301.407 88.9692C301.53 89.384 301.591 89.8431 301.591 90.3467H296.481ZM300.671 89.604C300.574 88.9565 300.339 88.4741 299.966 88.1567C299.594 87.8394 299.135 87.6807 298.589 87.6807C298.31 87.6807 298.051 87.7272 297.814 87.8203C297.577 87.9092 297.368 88.0382 297.186 88.2075C297.004 88.3768 296.852 88.582 296.729 88.8232C296.606 89.0602 296.528 89.3205 296.494 89.604H300.671ZM308.313 93H307.438V89.3501C307.438 88.8211 307.323 88.4106 307.095 88.1187C306.866 87.8267 306.496 87.6807 305.984 87.6807C305.662 87.6807 305.37 87.7547 305.108 87.9028C304.85 88.0509 304.63 88.2498 304.448 88.4995C304.266 88.745 304.126 89.0285 304.029 89.3501C303.936 89.6675 303.889 89.9997 303.889 90.3467V93H303.02V87.084H303.889V88.5693C304.308 87.486 305.055 86.9443 306.13 86.9443C307.586 86.9443 308.313 87.7463 308.313 89.3501V93ZM314.534 85.9033H313.354V84.7163H314.534V85.9033ZM312.014 95.5073C310.973 95.5073 310.245 95.0799 309.831 94.2251L310.497 93.7681C310.649 94.0897 310.848 94.3372 311.094 94.5107C311.343 94.6842 311.65 94.771 312.014 94.771C312.302 94.771 312.543 94.7287 312.738 94.644C312.932 94.5636 313.085 94.4473 313.195 94.2949C313.309 94.1426 313.389 93.9585 313.436 93.7427C313.487 93.5269 313.512 93.2793 313.512 93V87.8267H312.173V87.084H314.382V93C314.382 93.7617 314.181 94.369 313.779 94.8218C313.381 95.2788 312.793 95.5073 312.014 95.5073ZM322.97 90.061C322.97 90.5223 322.896 90.9412 322.748 91.3179C322.604 91.6945 322.395 92.0182 322.12 92.2891C321.849 92.5557 321.523 92.7651 321.142 92.9175C320.761 93.0698 320.336 93.146 319.866 93.146C319.405 93.146 318.984 93.0698 318.603 92.9175C318.222 92.7651 317.894 92.5557 317.619 92.2891C317.348 92.0182 317.139 91.6945 316.991 91.3179C316.847 90.9412 316.775 90.5223 316.775 90.061C316.775 89.6125 316.847 89.1956 316.991 88.8105C317.139 88.4212 317.348 88.0911 317.619 87.8203C317.894 87.5452 318.222 87.3315 318.603 87.1792C318.984 87.0226 319.405 86.9443 319.866 86.9443C320.336 86.9443 320.761 87.0226 321.142 87.1792C321.523 87.3315 321.849 87.5452 322.12 87.8203C322.395 88.0911 322.604 88.4212 322.748 88.8105C322.896 89.1956 322.97 89.6125 322.97 90.061ZM322.101 90.061C322.101 89.7225 322.05 89.4115 321.948 89.1279C321.851 88.8402 321.705 88.5884 321.51 88.3726C321.316 88.1567 321.079 87.9875 320.799 87.8647C320.524 87.742 320.213 87.6807 319.866 87.6807C319.519 87.6807 319.206 87.742 318.927 87.8647C318.652 87.9875 318.419 88.1567 318.229 88.3726C318.038 88.5884 317.892 88.8402 317.791 89.1279C317.693 89.4115 317.645 89.7225 317.645 90.061C317.645 90.3996 317.693 90.7127 317.791 91.0005C317.892 91.284 318.038 91.5295 318.229 91.7368C318.419 91.9442 318.652 92.1071 318.927 92.2256C319.206 92.3441 319.519 92.4033 319.866 92.4033C320.213 92.4033 320.524 92.3441 320.799 92.2256C321.079 92.1071 321.316 91.9442 321.51 91.7368C321.705 91.5295 321.851 91.284 321.948 91.0005C322.05 90.7127 322.101 90.3996 322.101 90.061ZM330.099 87.084L326.899 94.498C326.734 94.9128 326.502 95.1836 326.201 95.3105C325.901 95.4417 325.569 95.5073 325.205 95.5073C324.798 95.5073 324.392 95.4333 323.986 95.2852L324.157 94.5361C324.356 94.6208 324.551 94.68 324.741 94.7139C324.932 94.752 325.086 94.771 325.205 94.771C325.492 94.771 325.689 94.7012 325.795 94.5615C325.905 94.4219 326 94.2568 326.081 94.0664L326.442 93.1714L323.802 87.084H324.83L326.963 92.2573L329.058 87.084H330.099ZM184.42 100.084C184.42 100.884 184.17 101.478 183.671 101.868C183.172 102.257 182.471 102.452 181.57 102.452H179.697V106H178.828V97.7163H181.557C182.467 97.7163 183.172 97.9152 183.671 98.313C184.17 98.7065 184.42 99.2969 184.42 100.084ZM183.55 100.084C183.55 99.5127 183.37 99.1001 183.011 98.8462C182.651 98.5881 182.171 98.459 181.57 98.459H179.697V101.709H181.57C182.171 101.709 182.651 101.582 183.011 101.328C183.37 101.07 183.55 100.655 183.55 100.084ZM190.342 106H186.794V105.257H188.133V98.459H186.794V97.7163H189.009V105.257H190.342V106ZM192.697 104.4C192.697 104.028 192.79 103.717 192.977 103.467C193.163 103.213 193.406 103.014 193.707 102.871C194.011 102.722 194.358 102.617 194.748 102.553C195.141 102.486 195.541 102.452 195.947 102.452C196.104 102.452 196.243 102.454 196.366 102.458C196.493 102.462 196.612 102.469 196.722 102.477C196.836 102.486 196.95 102.496 197.064 102.509C197.179 102.521 197.304 102.536 197.439 102.553V102.128C197.439 101.84 197.375 101.603 197.249 101.417C197.126 101.231 196.973 101.085 196.792 100.979C196.61 100.869 196.419 100.793 196.22 100.75C196.021 100.704 195.852 100.681 195.712 100.681C195.272 100.681 194.866 100.74 194.494 100.858C194.121 100.977 193.774 101.136 193.453 101.334L193.059 100.681C193.415 100.465 193.812 100.289 194.252 100.154C194.697 100.014 195.183 99.9443 195.712 99.9443C196.034 99.9443 196.349 99.9867 196.658 100.071C196.971 100.152 197.251 100.279 197.496 100.452C197.746 100.621 197.945 100.846 198.093 101.125C198.241 101.404 198.315 101.739 198.315 102.128V106H197.439V105.01C197.287 105.2 197.113 105.367 196.918 105.511C196.728 105.655 196.527 105.774 196.315 105.867C196.104 105.956 195.892 106.023 195.681 106.07C195.469 106.121 195.268 106.146 195.078 106.146C194.295 106.146 193.702 105.996 193.3 105.695C192.898 105.395 192.697 104.963 192.697 104.4ZM195.078 105.403C195.442 105.403 195.767 105.35 196.055 105.245C196.347 105.135 196.595 104.999 196.798 104.838C197.001 104.678 197.158 104.506 197.268 104.324C197.382 104.142 197.439 103.977 197.439 103.829V103.271C197.155 103.228 196.882 103.205 196.62 103.201C196.362 103.196 196.138 103.194 195.947 103.194C195.634 103.194 195.332 103.215 195.04 103.258C194.752 103.3 194.5 103.37 194.284 103.467C194.068 103.56 193.895 103.683 193.764 103.835C193.632 103.988 193.567 104.176 193.567 104.4C193.567 104.65 193.688 104.881 193.929 105.092C194.174 105.3 194.557 105.403 195.078 105.403ZM205.907 100.084L202.708 107.498C202.542 107.913 202.31 108.184 202.009 108.311C201.709 108.442 201.377 108.507 201.013 108.507C200.606 108.507 200.2 108.433 199.794 108.285L199.965 107.536C200.164 107.621 200.359 107.68 200.549 107.714C200.74 107.752 200.894 107.771 201.013 107.771C201.3 107.771 201.497 107.701 201.603 107.562C201.713 107.422 201.808 107.257 201.889 107.066L202.25 106.171L199.61 100.084H200.638L202.771 105.257L204.866 100.084H205.907ZM212.508 106H207.214V97.7163H208.084V105.257H212.508V106ZM217.548 98.9033H216.368V97.7163H217.548V98.9033ZM218.729 106H215.181V105.257H216.52V100.827H215.181V100.084H217.396V105.257H218.729V106ZM227.076 104.115C227.008 104.737 226.763 105.232 226.34 105.6C225.921 105.964 225.396 106.146 224.766 106.146C224.419 106.146 224.101 106.089 223.813 105.975C223.526 105.86 223.28 105.702 223.077 105.499C222.874 105.295 222.715 105.052 222.601 104.769C222.491 104.481 222.436 104.168 222.436 103.829V100.827H221.097V100.084H222.436V97.7163H223.306V100.084H225.826V100.827H223.306V103.829C223.306 104.045 223.34 104.248 223.407 104.438C223.479 104.629 223.576 104.796 223.699 104.94C223.826 105.084 223.979 105.198 224.156 105.283C224.334 105.363 224.537 105.403 224.766 105.403C225.197 105.403 225.557 105.27 225.845 105.003C226.137 104.733 226.304 104.383 226.346 103.956L227.076 104.115ZM233.951 104.362C233.951 104.709 233.864 104.997 233.69 105.226C233.517 105.454 233.293 105.636 233.018 105.771C232.747 105.907 232.442 106.002 232.104 106.057C231.769 106.116 231.441 106.146 231.12 106.146C230.582 106.146 230.047 106.068 229.514 105.911C228.98 105.755 228.519 105.549 228.13 105.295L228.517 104.546C228.953 104.821 229.382 105.033 229.806 105.181C230.229 105.329 230.667 105.403 231.12 105.403C232.427 105.403 233.081 105.065 233.081 104.388C233.081 104.223 233.026 104.089 232.916 103.988C232.81 103.882 232.666 103.797 232.484 103.734C232.302 103.666 232.093 103.613 231.856 103.575C231.623 103.537 231.378 103.501 231.12 103.467C230.79 103.421 230.462 103.366 230.136 103.302C229.81 103.239 229.512 103.144 229.241 103.017C228.974 102.89 228.758 102.72 228.593 102.509C228.432 102.297 228.352 102.018 228.352 101.671C228.352 101.375 228.426 101.119 228.574 100.903C228.727 100.687 228.928 100.507 229.177 100.363C229.431 100.219 229.727 100.114 230.066 100.046C230.404 99.9782 230.756 99.9443 231.12 99.9443C231.64 99.9443 232.106 100.006 232.516 100.128C232.927 100.247 233.297 100.418 233.627 100.643L233.278 101.322C232.939 101.085 232.597 100.92 232.25 100.827C231.903 100.729 231.526 100.681 231.12 100.681C230.938 100.681 230.735 100.698 230.51 100.731C230.29 100.761 230.085 100.816 229.895 100.896C229.704 100.973 229.543 101.074 229.412 101.201C229.285 101.324 229.222 101.48 229.222 101.671C229.222 101.836 229.275 101.969 229.38 102.071C229.49 102.168 229.636 102.251 229.818 102.318C230 102.382 230.208 102.433 230.44 102.471C230.677 102.509 230.925 102.545 231.183 102.579C231.505 102.625 231.828 102.68 232.154 102.744C232.484 102.807 232.783 102.9 233.049 103.023C233.32 103.146 233.538 103.313 233.703 103.524C233.868 103.736 233.951 104.015 233.951 104.362ZM238.826 97.7163L238.502 103.67H237.981L237.658 97.7163H238.826ZM238.838 106H237.658V104.819H238.838V106ZM245.922 97.7163L245.599 103.67H245.078L244.754 97.7163H245.922ZM245.935 106H244.754V104.819H245.935V106Z" fill="#D95ADC"/>
<path d="M211.632 80H208.084V79.2573H209.423V72.459H208.084V71.7163H210.299V79.2573H211.632V80ZM217.548 72.9033H216.368V71.7163H217.548V72.9033ZM218.729 80H215.181V79.2573H216.52V74.8267H215.181V74.084H217.396V79.2573H218.729V80ZM226.702 80H225.826V76.3501C225.826 75.8211 225.711 75.4106 225.483 75.1187C225.254 74.8267 224.884 74.6807 224.372 74.6807C224.05 74.6807 223.758 74.7547 223.496 74.9028C223.238 75.0509 223.018 75.2498 222.836 75.4995C222.654 75.745 222.514 76.0285 222.417 76.3501C222.324 76.6675 222.277 76.9997 222.277 77.3467V80H221.408V74.084H222.277V75.5693C222.696 74.486 223.443 73.9443 224.518 73.9443C225.974 73.9443 226.702 74.7463 226.702 76.3501V80ZM234.097 80H232.859L230.44 77.3467L229.374 78.3242V80H228.504V71.7163H229.374V77.2705L232.745 74.084H233.989L231.024 76.8008L234.097 80Z" fill="#EEEEEE"/>
<path d="M7.16004 7.51289C6.61488 7.4245 6.10128 7.79479 6.01289 8.33996L4.5725 17.2239C4.48411 17.7691 4.8544 18.2827 5.39956 18.3711C5.94473 18.4595 6.45833 18.0892 6.54672 17.544L7.82707 9.64715L15.7239 10.9275C16.2691 11.0159 16.7827 10.6456 16.8711 10.1004C16.9595 9.55527 16.5892 9.04167 16.044 8.95328L7.16004 7.51289ZM96.2143 62.4806L63.2214 58.243L62.9666 60.2267L95.9595 64.4643L96.2143 62.4806ZM29.7168 38.2986L7.81116 7.91518L6.18884 9.08482L28.0945 39.4683L29.7168 38.2986ZM63.2214 58.243C49.775 56.516 37.6451 49.2953 29.7168 38.2986L28.0945 39.4683C36.3464 50.9138 48.9714 58.4292 62.9666 60.2267L63.2214 58.243Z" fill="#D95ADC"/>
</svg>
