<svg width="105" height="104" viewBox="0 0 105 104" fill="none" xmlns="http://www.w3.org/2000/svg">
<path d="M47.2785 54.5873L63.5131 48.5874L61.3798 42.815C61.2954 42.5867 61.3082 42.3283 61.4165 42.0726C61.5247 41.8169 61.7236 41.5752 61.9879 41.3783C62.2522 41.1813 62.5701 41.0378 62.9015 40.966C63.2328 40.8941 63.5626 40.8971 63.8493 40.9746L88.4508 47.6283C88.8352 47.7323 89.1147 47.9627 89.2278 48.2688C89.341 48.5749 89.2785 48.9317 89.0542 49.2607L74.6927 70.3143C74.5253 70.5596 74.2767 70.7764 73.9783 70.9373C73.6798 71.0982 73.345 71.1959 73.0161 71.2182C72.6872 71.2405 72.379 71.1862 72.1305 71.0624C71.882 70.9385 71.7042 70.7505 71.6198 70.5223L69.4865 64.7499L53.2519 70.7499C52.3908 71.0674 51.4754 71.129 50.7067 70.9211C49.938 70.7132 49.3787 70.2528 49.1516 69.641L44.8849 58.0963C44.66 57.4837 44.7857 56.7704 45.2343 56.1126C45.683 55.4549 46.4181 54.9064 47.2785 54.5873V54.5873ZM85.3092 49.7171L65.6566 44.4019L67.6133 49.6963L48.1319 56.8963L52.3985 68.441L71.88 61.241L73.8367 66.5354L85.3092 49.7171Z" fill="white"/>
<path d="M58.4307 48.7427L42.1961 54.7427L44.3295 60.515C44.4138 60.7433 44.401 61.0017 44.2928 61.2574C44.1845 61.5132 43.9857 61.7548 43.7213 61.9518C43.457 62.1488 43.1391 62.2922 42.8078 62.3641C42.4764 62.4359 42.1466 62.4329 41.8599 62.3554L17.2584 55.7018C16.874 55.5978 16.5945 55.3674 16.4814 55.0612C16.3683 54.7551 16.4307 54.3983 16.6551 54.0694L31.0165 33.0158C31.1839 32.7704 31.4325 32.5536 31.731 32.3927C32.0294 32.2318 32.3642 32.1341 32.6931 32.1118C33.022 32.0896 33.3302 32.1438 33.5787 32.2677C33.8273 32.3916 34.005 32.5795 34.0894 32.8078L36.2228 38.5801L52.4574 32.5801C53.3185 32.2626 54.2338 32.201 55.0025 32.4089C55.7712 32.6168 56.3305 33.0772 56.5576 33.6891L60.8243 45.2338C61.0492 45.8463 60.9236 46.5597 60.4749 47.2174C60.0262 47.8752 59.2911 48.4237 58.4307 48.7427V48.7427ZM20.4001 53.613L40.0526 58.9281L38.0959 53.6337L57.5774 46.4338L53.3107 34.8891L33.8292 42.089L31.8725 36.7947L20.4001 53.613Z" fill="white"/>
</svg>
