<svg width="80" height="31" viewBox="0 0 80 31" fill="none" xmlns="http://www.w3.org/2000/svg">
<path d="M20.844 7.656C21.332 7.784 21.708 8.024 21.972 8.376C22.244 8.728 22.38 9.168 22.38 9.696C22.38 10.44 22.136 11.012 21.648 11.412C21.16 11.804 20.468 12 19.572 12H16.548C16.396 12 16.272 11.956 16.176 11.868C16.088 11.78 16.044 11.664 16.044 11.52V4.02C16.044 3.876 16.088 3.76 16.176 3.672C16.272 3.584 16.396 3.54 16.548 3.54H19.44C20.312 3.54 20.988 3.732 21.468 4.116C21.948 4.5 22.188 5.044 22.188 5.748C22.188 6.204 22.068 6.596 21.828 6.924C21.596 7.252 21.268 7.496 20.844 7.656ZM17.016 7.296H19.296C19.928 7.296 20.404 7.168 20.724 6.912C21.052 6.656 21.216 6.284 21.216 5.796C21.216 4.836 20.576 4.356 19.296 4.356H17.016V7.296ZM19.476 11.184C20.14 11.184 20.628 11.064 20.94 10.824C21.26 10.576 21.42 10.192 21.42 9.672C21.42 8.632 20.772 8.112 19.476 8.112H17.016V11.184H19.476ZM26.3739 6.012C27.8379 6.012 28.5699 6.78 28.5699 8.316V11.58C28.5699 11.724 28.5259 11.84 28.4379 11.928C28.3579 12.016 28.2459 12.06 28.1019 12.06C27.9579 12.06 27.8419 12.016 27.7539 11.928C27.6659 11.84 27.6219 11.724 27.6219 11.58V11.004C27.4699 11.348 27.2379 11.616 26.9259 11.808C26.6139 11.992 26.2539 12.084 25.8459 12.084C25.4699 12.084 25.1219 12.008 24.8019 11.856C24.4899 11.704 24.2419 11.492 24.0579 11.22C23.8739 10.948 23.7819 10.648 23.7819 10.32C23.7819 9.88 23.8939 9.54 24.1179 9.3C24.3419 9.052 24.7099 8.876 25.2219 8.772C25.7339 8.66 26.4459 8.604 27.3579 8.604H27.6219V8.208C27.6219 7.728 27.5219 7.376 27.3219 7.152C27.1299 6.928 26.8139 6.816 26.3739 6.816C25.8299 6.816 25.2779 6.964 24.7179 7.26C24.5019 7.396 24.3499 7.464 24.2619 7.464C24.1659 7.464 24.0859 7.428 24.0219 7.356C23.9579 7.284 23.9259 7.192 23.9259 7.08C23.9259 6.968 23.9579 6.872 24.0219 6.792C24.0939 6.704 24.2059 6.616 24.3579 6.528C24.6379 6.368 24.9539 6.244 25.3059 6.156C25.6659 6.06 26.0219 6.012 26.3739 6.012ZM25.9779 11.316C26.4579 11.316 26.8499 11.156 27.1539 10.836C27.4659 10.508 27.6219 10.088 27.6219 9.576V9.228H27.4059C26.7019 9.228 26.1659 9.26 25.7979 9.324C25.4299 9.38 25.1659 9.48 25.0059 9.624C24.8539 9.76 24.7779 9.964 24.7779 10.236C24.7779 10.548 24.8899 10.808 25.1139 11.016C25.3459 11.216 25.6339 11.316 25.9779 11.316ZM32.7612 12.084C32.2172 12.084 31.7332 11.96 31.3092 11.712C30.8932 11.464 30.5692 11.112 30.3372 10.656C30.1132 10.2 30.0012 9.672 30.0012 9.072C30.0012 8.472 30.1172 7.94 30.3492 7.476C30.5892 7.012 30.9212 6.652 31.3452 6.396C31.7692 6.14 32.2572 6.012 32.8092 6.012C33.1132 6.012 33.4132 6.056 33.7092 6.144C34.0132 6.224 34.2772 6.344 34.5012 6.504C34.6452 6.6 34.7452 6.696 34.8012 6.792C34.8652 6.88 34.8972 6.98 34.8972 7.092C34.8972 7.204 34.8652 7.296 34.8012 7.368C34.7452 7.44 34.6692 7.476 34.5732 7.476C34.5172 7.476 34.4572 7.46 34.3932 7.428C34.3292 7.396 34.2732 7.364 34.2252 7.332C34.1852 7.3 34.1572 7.28 34.1412 7.272C33.9332 7.136 33.7332 7.028 33.5412 6.948C33.3572 6.868 33.1292 6.828 32.8572 6.828C32.2732 6.828 31.8172 7.028 31.4892 7.428C31.1692 7.82 31.0092 8.368 31.0092 9.072C31.0092 9.776 31.1692 10.32 31.4892 10.704C31.8172 11.088 32.2732 11.28 32.8572 11.28C33.1292 11.28 33.3612 11.24 33.5532 11.16C33.7532 11.08 33.9532 10.972 34.1532 10.836C34.2412 10.78 34.3252 10.732 34.4052 10.692C34.4852 10.652 34.5532 10.632 34.6092 10.632C34.6972 10.632 34.7692 10.668 34.8252 10.74C34.8892 10.812 34.9212 10.904 34.9212 11.016C34.9212 11.12 34.8932 11.216 34.8372 11.304C34.7812 11.384 34.6772 11.476 34.5252 11.58C34.3012 11.732 34.0292 11.856 33.7092 11.952C33.3972 12.04 33.0812 12.084 32.7612 12.084ZM40.7594 11.232C40.8874 11.352 40.9514 11.48 40.9514 11.616C40.9514 11.736 40.9074 11.84 40.8194 11.928C40.7394 12.016 40.6394 12.06 40.5194 12.06C40.4154 12.06 40.3074 12.012 40.1954 11.916L37.0634 9.216V11.58C37.0634 11.732 37.0154 11.852 36.9194 11.94C36.8314 12.02 36.7194 12.06 36.5834 12.06C36.4394 12.06 36.3194 12.02 36.2234 11.94C36.1354 11.852 36.0914 11.732 36.0914 11.58V3.96C36.0914 3.808 36.1354 3.692 36.2234 3.612C36.3194 3.524 36.4394 3.48 36.5834 3.48C36.7194 3.48 36.8314 3.524 36.9194 3.612C37.0154 3.692 37.0634 3.808 37.0634 3.96V8.832L39.9314 6.204C40.0274 6.108 40.1354 6.06 40.2554 6.06C40.3754 6.06 40.4794 6.104 40.5674 6.192C40.6554 6.28 40.6994 6.384 40.6994 6.504C40.6994 6.64 40.6434 6.76 40.5314 6.864L38.1674 8.976L40.7594 11.232ZM47.8852 11.292C48.1652 11.316 48.3052 11.444 48.3052 11.676C48.3052 11.812 48.2532 11.916 48.1492 11.988C48.0532 12.052 47.9052 12.076 47.7052 12.06L47.3812 12.036C46.7412 11.988 46.2692 11.796 45.9652 11.46C45.6612 11.124 45.5092 10.616 45.5092 9.936V6.924H44.7052C44.5692 6.924 44.4612 6.892 44.3812 6.828C44.3092 6.756 44.2732 6.664 44.2732 6.552C44.2732 6.432 44.3092 6.336 44.3812 6.264C44.4612 6.192 44.5692 6.156 44.7052 6.156H45.5092V4.8C45.5092 4.648 45.5532 4.532 45.6412 4.452C45.7292 4.364 45.8492 4.32 46.0012 4.32C46.1452 4.32 46.2612 4.364 46.3492 4.452C46.4372 4.532 46.4812 4.648 46.4812 4.8V6.156H47.8132C47.9412 6.156 48.0412 6.192 48.1132 6.264C48.1932 6.336 48.2332 6.432 48.2332 6.552C48.2332 6.664 48.1932 6.756 48.1132 6.828C48.0412 6.892 47.9412 6.924 47.8132 6.924H46.4812V9.984C46.4812 10.424 46.5692 10.744 46.7452 10.944C46.9292 11.136 47.2012 11.244 47.5612 11.268L47.8852 11.292ZM51.6873 12.084C51.1353 12.084 50.6473 11.96 50.2233 11.712C49.8073 11.464 49.4833 11.112 49.2513 10.656C49.0273 10.192 48.9153 9.656 48.9153 9.048C48.9153 8.44 49.0273 7.908 49.2513 7.452C49.4833 6.988 49.8073 6.632 50.2233 6.384C50.6473 6.136 51.1353 6.012 51.6873 6.012C52.2393 6.012 52.7273 6.136 53.1513 6.384C53.5753 6.632 53.8993 6.988 54.1233 7.452C54.3553 7.908 54.4713 8.44 54.4713 9.048C54.4713 9.656 54.3553 10.192 54.1233 10.656C53.8993 11.112 53.5753 11.464 53.1513 11.712C52.7273 11.96 52.2393 12.084 51.6873 12.084ZM51.6873 11.28C52.2633 11.28 52.7033 11.092 53.0073 10.716C53.3193 10.332 53.4753 9.776 53.4753 9.048C53.4753 8.336 53.3193 7.788 53.0073 7.404C52.6953 7.012 52.2553 6.816 51.6873 6.816C51.1193 6.816 50.6793 7.012 50.3673 7.404C50.0553 7.788 49.8993 8.336 49.8993 9.048C49.8993 9.768 50.0513 10.32 50.3553 10.704C50.6673 11.088 51.1113 11.28 51.6873 11.28ZM16.536 28.06C16.384 28.06 16.264 28.016 16.176 27.928C16.088 27.832 16.044 27.708 16.044 27.556V20.02C16.044 19.876 16.088 19.76 16.176 19.672C16.272 19.584 16.396 19.54 16.548 19.54H19.392C20.28 19.54 20.968 19.756 21.456 20.188C21.952 20.62 22.2 21.232 22.2 22.024C22.2 22.816 21.952 23.432 21.456 23.872C20.96 24.312 20.272 24.532 19.392 24.532H17.028V27.556C17.028 27.708 16.984 27.832 16.896 27.928C16.808 28.016 16.688 28.06 16.536 28.06ZM19.296 23.716C20.584 23.716 21.228 23.152 21.228 22.024C21.228 20.912 20.584 20.356 19.296 20.356H17.028V23.716H19.296ZM24.1264 28.06C23.9824 28.06 23.8624 28.02 23.7664 27.94C23.6784 27.852 23.6344 27.732 23.6344 27.58V19.96C23.6344 19.808 23.6784 19.692 23.7664 19.612C23.8624 19.524 23.9824 19.48 24.1264 19.48C24.2624 19.48 24.3744 19.524 24.4624 19.612C24.5584 19.692 24.6064 19.808 24.6064 19.96V27.58C24.6064 27.732 24.5584 27.852 24.4624 27.94C24.3744 28.02 24.2624 28.06 24.1264 28.06ZM28.8114 22.012C30.2754 22.012 31.0074 22.78 31.0074 24.316V27.58C31.0074 27.724 30.9634 27.84 30.8754 27.928C30.7954 28.016 30.6834 28.06 30.5394 28.06C30.3954 28.06 30.2794 28.016 30.1914 27.928C30.1034 27.84 30.0594 27.724 30.0594 27.58V27.004C29.9074 27.348 29.6754 27.616 29.3634 27.808C29.0514 27.992 28.6914 28.084 28.2834 28.084C27.9074 28.084 27.5594 28.008 27.2394 27.856C26.9274 27.704 26.6794 27.492 26.4954 27.22C26.3114 26.948 26.2194 26.648 26.2194 26.32C26.2194 25.88 26.3314 25.54 26.5554 25.3C26.7794 25.052 27.1474 24.876 27.6594 24.772C28.1714 24.66 28.8834 24.604 29.7954 24.604H30.0594V24.208C30.0594 23.728 29.9594 23.376 29.7594 23.152C29.5674 22.928 29.2514 22.816 28.8114 22.816C28.2674 22.816 27.7154 22.964 27.1554 23.26C26.9394 23.396 26.7874 23.464 26.6994 23.464C26.6034 23.464 26.5234 23.428 26.4594 23.356C26.3954 23.284 26.3634 23.192 26.3634 23.08C26.3634 22.968 26.3954 22.872 26.4594 22.792C26.5314 22.704 26.6434 22.616 26.7954 22.528C27.0754 22.368 27.3914 22.244 27.7434 22.156C28.1034 22.06 28.4594 22.012 28.8114 22.012ZM28.4154 27.316C28.8954 27.316 29.2874 27.156 29.5914 26.836C29.9034 26.508 30.0594 26.088 30.0594 25.576V25.228H29.8434C29.1394 25.228 28.6034 25.26 28.2354 25.324C27.8674 25.38 27.6034 25.48 27.4434 25.624C27.2914 25.76 27.2154 25.964 27.2154 26.236C27.2154 26.548 27.3274 26.808 27.5514 27.016C27.7834 27.216 28.0714 27.316 28.4154 27.316ZM36.9987 22.336C37.0867 22.144 37.2267 22.048 37.4187 22.048C37.5387 22.048 37.6467 22.088 37.7427 22.168C37.8387 22.248 37.8867 22.348 37.8867 22.468C37.8867 22.54 37.8707 22.604 37.8387 22.66L34.4667 29.932C34.4267 30.02 34.3667 30.088 34.2867 30.136C34.2147 30.184 34.1387 30.208 34.0587 30.208C33.9387 30.208 33.8307 30.168 33.7347 30.088C33.6467 30.016 33.6027 29.92 33.6027 29.8C33.6027 29.736 33.6187 29.672 33.6507 29.608L34.4907 27.796L32.1147 22.66C32.0827 22.604 32.0667 22.544 32.0667 22.48C32.0667 22.36 32.1187 22.256 32.2227 22.168C32.3347 22.08 32.4547 22.036 32.5827 22.036C32.6627 22.036 32.7387 22.06 32.8107 22.108C32.8907 22.156 32.9507 22.224 32.9907 22.312L34.9947 26.812L36.9987 22.336ZM39.5951 28.06C39.4511 28.06 39.3311 28.02 39.2351 27.94C39.1471 27.852 39.1031 27.732 39.1031 27.58V19.96C39.1031 19.808 39.1471 19.692 39.2351 19.612C39.3311 19.524 39.4511 19.48 39.5951 19.48C39.7311 19.48 39.8431 19.524 39.9311 19.612C40.0271 19.692 40.0751 19.808 40.0751 19.96V27.58C40.0751 27.732 40.0271 27.852 39.9311 27.94C39.8431 28.02 39.7311 28.06 39.5951 28.06ZM42.3842 28.06C42.2402 28.06 42.1202 28.02 42.0242 27.94C41.9362 27.852 41.8922 27.732 41.8922 27.58V22.516C41.8922 22.364 41.9362 22.248 42.0242 22.168C42.1202 22.08 42.2402 22.036 42.3842 22.036C42.5282 22.036 42.6442 22.08 42.7322 22.168C42.8202 22.248 42.8642 22.364 42.8642 22.516V27.58C42.8642 27.74 42.8202 27.86 42.7322 27.94C42.6442 28.02 42.5282 28.06 42.3842 28.06ZM42.3842 20.776C42.1922 20.776 42.0362 20.72 41.9162 20.608C41.7962 20.496 41.7362 20.348 41.7362 20.164C41.7362 19.988 41.7962 19.844 41.9162 19.732C42.0362 19.62 42.1922 19.564 42.3842 19.564C42.5762 19.564 42.7322 19.62 42.8522 19.732C42.9722 19.844 43.0322 19.988 43.0322 20.164C43.0322 20.348 42.9722 20.496 42.8522 20.608C42.7322 20.72 42.5762 20.776 42.3842 20.776ZM46.6493 28.084C46.2813 28.084 45.9293 28.04 45.5933 27.952C45.2653 27.864 44.9733 27.74 44.7173 27.58C44.5733 27.484 44.4693 27.396 44.4053 27.316C44.3493 27.228 44.3213 27.124 44.3213 27.004C44.3213 26.9 44.3493 26.816 44.4053 26.752C44.4693 26.68 44.5493 26.644 44.6453 26.644C44.7413 26.644 44.8813 26.704 45.0653 26.824C45.3053 26.968 45.5413 27.084 45.7733 27.172C46.0133 27.252 46.3093 27.292 46.6613 27.292C47.0933 27.292 47.4293 27.216 47.6693 27.064C47.9093 26.912 48.0293 26.692 48.0293 26.404C48.0293 26.228 47.9853 26.088 47.8973 25.984C47.8093 25.872 47.6573 25.776 47.4413 25.696C47.2253 25.608 46.9093 25.52 46.4933 25.432C45.7893 25.28 45.2853 25.076 44.9813 24.82C44.6773 24.564 44.5253 24.216 44.5253 23.776C44.5253 23.432 44.6213 23.128 44.8133 22.864C45.0053 22.6 45.2693 22.392 45.6053 22.24C45.9493 22.088 46.3373 22.012 46.7693 22.012C47.0813 22.012 47.3813 22.056 47.6693 22.144C47.9653 22.224 48.2253 22.34 48.4493 22.492C48.7213 22.684 48.8573 22.884 48.8573 23.092C48.8573 23.196 48.8253 23.284 48.7613 23.356C48.6973 23.428 48.6213 23.464 48.5333 23.464C48.4373 23.464 48.2933 23.396 48.1013 23.26C47.8773 23.116 47.6653 23.004 47.4653 22.924C47.2653 22.844 47.0173 22.804 46.7213 22.804C46.3453 22.804 46.0413 22.888 45.8093 23.056C45.5853 23.224 45.4733 23.448 45.4733 23.728C45.4733 23.904 45.5133 24.048 45.5933 24.16C45.6813 24.264 45.8213 24.36 46.0133 24.448C46.2133 24.528 46.4973 24.608 46.8652 24.688C47.4093 24.808 47.8293 24.94 48.1253 25.084C48.4293 25.228 48.6453 25.404 48.7733 25.612C48.9013 25.82 48.9653 26.084 48.9653 26.404C48.9653 26.908 48.7533 27.316 48.3293 27.628C47.9053 27.932 47.3453 28.084 46.6493 28.084ZM53.0883 27.292C53.3683 27.316 53.5083 27.444 53.5083 27.676C53.5083 27.812 53.4563 27.916 53.3523 27.988C53.2563 28.052 53.1083 28.076 52.9083 28.06L52.5843 28.036C51.9443 27.988 51.4723 27.796 51.1683 27.46C50.8643 27.124 50.7123 26.616 50.7123 25.936V22.924H49.9083C49.7723 22.924 49.6643 22.892 49.5843 22.828C49.5123 22.756 49.4763 22.664 49.4763 22.552C49.4763 22.432 49.5123 22.336 49.5843 22.264C49.6643 22.192 49.7723 22.156 49.9083 22.156H50.7123V20.8C50.7123 20.648 50.7563 20.532 50.8443 20.452C50.9323 20.364 51.0523 20.32 51.2043 20.32C51.3483 20.32 51.4643 20.364 51.5523 20.452C51.6403 20.532 51.6843 20.648 51.6843 20.8V22.156H53.0163C53.1443 22.156 53.2443 22.192 53.3163 22.264C53.3963 22.336 53.4363 22.432 53.4363 22.552C53.4363 22.664 53.3963 22.756 53.3163 22.828C53.2443 22.892 53.1443 22.924 53.0163 22.924H51.6843V25.984C51.6843 26.424 51.7723 26.744 51.9483 26.944C52.1323 27.136 52.4043 27.244 52.7643 27.268L53.0883 27.292ZM56.4344 28.084C56.0664 28.084 55.7144 28.04 55.3784 27.952C55.0504 27.864 54.7584 27.74 54.5024 27.58C54.3584 27.484 54.2544 27.396 54.1904 27.316C54.1344 27.228 54.1064 27.124 54.1064 27.004C54.1064 26.9 54.1344 26.816 54.1904 26.752C54.2544 26.68 54.3344 26.644 54.4304 26.644C54.5264 26.644 54.6664 26.704 54.8504 26.824C55.0904 26.968 55.3264 27.084 55.5584 27.172C55.7984 27.252 56.0944 27.292 56.4464 27.292C56.8784 27.292 57.2144 27.216 57.4544 27.064C57.6944 26.912 57.8144 26.692 57.8144 26.404C57.8144 26.228 57.7704 26.088 57.6824 25.984C57.5944 25.872 57.4424 25.776 57.2264 25.696C57.0104 25.608 56.6944 25.52 56.2784 25.432C55.5744 25.28 55.0704 25.076 54.7664 24.82C54.4624 24.564 54.3104 24.216 54.3104 23.776C54.3104 23.432 54.4064 23.128 54.5984 22.864C54.7904 22.6 55.0544 22.392 55.3904 22.24C55.7344 22.088 56.1224 22.012 56.5544 22.012C56.8664 22.012 57.1664 22.056 57.4544 22.144C57.7504 22.224 58.0104 22.34 58.2344 22.492C58.5064 22.684 58.6424 22.884 58.6424 23.092C58.6424 23.196 58.6104 23.284 58.5464 23.356C58.4824 23.428 58.4064 23.464 58.3184 23.464C58.2224 23.464 58.0784 23.396 57.8864 23.26C57.6624 23.116 57.4504 23.004 57.2504 22.924C57.0504 22.844 56.8024 22.804 56.5064 22.804C56.1304 22.804 55.8264 22.888 55.5944 23.056C55.3704 23.224 55.2584 23.448 55.2584 23.728C55.2584 23.904 55.2984 24.048 55.3784 24.16C55.4664 24.264 55.6064 24.36 55.7984 24.448C55.9984 24.528 56.2824 24.608 56.6504 24.688C57.1944 24.808 57.6144 24.94 57.9104 25.084C58.2144 25.228 58.4304 25.404 58.5584 25.612C58.6864 25.82 58.7504 26.084 58.7504 26.404C58.7504 26.908 58.5384 27.316 58.1144 27.628C57.6904 27.932 57.1304 28.084 56.4344 28.084Z" fill="#EEEEEE"/>
<path fill-rule="evenodd" clip-rule="evenodd" d="M5.78234 9.22034C5.85218 9.29001 5.9076 9.37277 5.94541 9.46389C5.98322 9.55501 6.00268 9.65269 6.00268 9.75134C6.00268 9.84999 5.98322 9.94767 5.94541 10.0388C5.9076 10.1299 5.85218 10.2127 5.78234 10.2823L1.81184 14.2513L5.78234 18.2203C5.85207 18.2901 5.90739 18.3729 5.94513 18.464C5.98286 18.5551 6.00229 18.6527 6.00229 18.7513C6.00229 18.85 5.98286 18.9476 5.94513 19.0387C5.90739 19.1298 5.85207 19.2126 5.78234 19.2823C5.71261 19.3521 5.62982 19.4074 5.53872 19.4451C5.44761 19.4829 5.34996 19.5023 5.25134 19.5023C5.15272 19.5023 5.05507 19.4829 4.96396 19.4451C4.87286 19.4074 4.79007 19.3521 4.72034 19.2823L0.220341 14.7823C0.150496 14.7127 0.0950813 14.6299 0.0572716 14.5388C0.0194619 14.4477 0 14.35 0 14.2513C0 14.1527 0.0194619 14.055 0.0572716 13.9639C0.0950813 13.8728 0.150496 13.79 0.220341 13.7203L4.72034 9.22034C4.79001 9.1505 4.87277 9.09508 4.96389 9.05727C5.05501 9.01946 5.15269 9 5.25134 9C5.34999 9 5.44767 9.01946 5.53879 9.05727C5.62991 9.09508 5.71267 9.1505 5.78234 9.22034Z" fill="#EEEEEE"/>
<path fill-rule="evenodd" clip-rule="evenodd" d="M0.751343 14.2513C0.751343 14.0524 0.830361 13.8617 0.971013 13.721C1.11167 13.5804 1.30243 13.5013 1.50134 13.5013H11.2513C11.4503 13.5013 11.641 13.5804 11.7817 13.721C11.9223 13.8617 12.0013 14.0524 12.0013 14.2513C12.0013 14.4503 11.9223 14.641 11.7817 14.7817C11.641 14.9223 11.4503 15.0013 11.2513 15.0013H1.50134C1.30243 15.0013 1.11167 14.9223 0.971013 14.7817C0.830361 14.641 0.751343 14.4503 0.751343 14.2513Z" fill="#EEEEEE"/>
</svg>
