<svg width="80" height="28" viewBox="0 0 80 28" fill="none" xmlns="http://www.w3.org/2000/svg">
<path d="M20.9033 8.63232C20.9033 9.42367 20.6473 10.0161 20.1353 10.4097C19.6232 10.8032 18.8953 11 17.9517 11H15.311V2.71631H17.8057C18.1527 2.71631 18.4933 2.74593 18.8276 2.80518C19.1619 2.86019 19.4603 2.96598 19.7227 3.12256C19.9893 3.27913 20.2051 3.49707 20.3701 3.77637C20.5352 4.05143 20.6177 4.41325 20.6177 4.86182C20.6177 5.72087 20.1882 6.30697 19.3291 6.62012C20.3786 6.94173 20.9033 7.61247 20.9033 8.63232ZM19.748 4.86182C19.748 4.56982 19.6867 4.33073 19.564 4.14453C19.4412 3.95833 19.2847 3.81657 19.0942 3.71924C18.9038 3.61768 18.6943 3.54997 18.4658 3.51611C18.2373 3.47803 18.0173 3.45898 17.8057 3.45898H16.1807V6.271H17.8057C18.0426 6.271 18.2754 6.25407 18.5039 6.22021C18.7324 6.18213 18.9377 6.1123 19.1196 6.01074C19.3016 5.90495 19.4518 5.76107 19.5703 5.5791C19.6888 5.39714 19.748 5.15804 19.748 4.86182ZM20.0337 8.63232C20.0337 8.06104 19.8475 7.64632 19.4751 7.38818C19.1069 7.12581 18.5991 6.99463 17.9517 6.99463H16.1807V10.2573H17.9517C18.5991 10.2573 19.1069 10.1219 19.4751 9.85107C19.8475 9.57601 20.0337 9.16976 20.0337 8.63232ZM22.084 9.40039C22.084 9.02799 22.1771 8.71696 22.3633 8.46729C22.5495 8.21338 22.7928 8.01449 23.0933 7.87061C23.3979 7.72249 23.745 7.6167 24.1343 7.55322C24.5278 7.48551 24.9277 7.45166 25.334 7.45166C25.4906 7.45166 25.6302 7.45378 25.7529 7.45801C25.8799 7.46224 25.9984 7.46859 26.1084 7.47705C26.2227 7.48551 26.3369 7.49609 26.4512 7.50879C26.5654 7.52148 26.6903 7.5363 26.8257 7.55322V7.12793C26.8257 6.84017 26.7622 6.60319 26.6353 6.41699C26.5125 6.23079 26.3602 6.0848 26.1782 5.979C25.9963 5.86898 25.8058 5.79281 25.6069 5.75049C25.408 5.70394 25.2388 5.68066 25.0991 5.68066C24.659 5.68066 24.2528 5.73991 23.8804 5.8584C23.508 5.97689 23.161 6.13558 22.8394 6.33447L22.4458 5.68066C22.8013 5.46484 23.1991 5.28923 23.6392 5.15381C24.0835 5.01416 24.5701 4.94434 25.0991 4.94434C25.4207 4.94434 25.736 4.98665 26.0449 5.07129C26.3581 5.15169 26.6374 5.27865 26.8828 5.45215C27.1325 5.62142 27.3314 5.8457 27.4795 6.125C27.6276 6.4043 27.7017 6.73861 27.7017 7.12793V11H26.8257V10.0098C26.6733 10.2002 26.4998 10.3674 26.3052 10.5112C26.1147 10.6551 25.9137 10.7736 25.7021 10.8667C25.4906 10.9556 25.279 11.0233 25.0674 11.0698C24.8558 11.1206 24.6548 11.146 24.4644 11.146C23.6815 11.146 23.089 10.9958 22.687 10.6953C22.285 10.3949 22.084 9.96322 22.084 9.40039ZM24.4644 10.4033C24.8283 10.4033 25.1541 10.3504 25.4419 10.2446C25.7339 10.1346 25.9814 9.99919 26.1846 9.83838C26.3877 9.67757 26.5443 9.50618 26.6543 9.32422C26.7686 9.14225 26.8257 8.97721 26.8257 8.8291V8.27051C26.5422 8.22819 26.2692 8.20492 26.0068 8.20068C25.7487 8.19645 25.5244 8.19434 25.334 8.19434C25.0208 8.19434 24.7183 8.21549 24.4263 8.25781C24.1385 8.30013 23.8867 8.36995 23.6709 8.46729C23.4551 8.56038 23.2816 8.68311 23.1504 8.83545C23.0192 8.98779 22.9536 9.17611 22.9536 9.40039C22.9536 9.65007 23.0742 9.8807 23.3154 10.0923C23.5609 10.2996 23.9438 10.4033 24.4644 10.4033ZM34.8872 9.87012C34.6375 10.2594 34.2948 10.5705 33.8589 10.8032C33.4272 11.0317 32.9131 11.146 32.3164 11.146C31.8551 11.146 31.432 11.0698 31.0469 10.9175C30.6618 10.7651 30.3317 10.5535 30.0566 10.2827C29.7858 10.0076 29.5742 9.6818 29.4219 9.30518C29.2695 8.92855 29.1934 8.5096 29.1934 8.04834C29.1934 7.59977 29.2632 7.18506 29.4028 6.8042C29.5425 6.41911 29.7414 6.09115 29.9995 5.82031C30.2576 5.54525 30.5729 5.33154 30.9453 5.1792C31.3219 5.02262 31.7388 4.94434 32.1958 4.94434C32.3778 4.94434 32.564 4.96549 32.7544 5.00781C32.9448 5.05013 33.1247 5.11572 33.2939 5.20459C33.4632 5.28923 33.6156 5.3929 33.751 5.51562C33.8864 5.63411 33.988 5.77588 34.0557 5.94092V5.08398H34.8364V7.45166H34.0557C34.0557 7.18929 34.007 6.9502 33.9097 6.73438C33.8166 6.51855 33.6875 6.33236 33.5225 6.17578C33.3574 6.01921 33.1606 5.8986 32.9321 5.81396C32.7036 5.7251 32.4582 5.68066 32.1958 5.68066C31.8403 5.68066 31.5293 5.74202 31.2627 5.86475C31.0003 5.98747 30.7803 6.15462 30.6025 6.36621C30.4248 6.5778 30.2894 6.82747 30.1963 7.11523C30.1074 7.39876 30.063 7.7098 30.063 8.04834C30.063 8.38688 30.1138 8.70003 30.2153 8.98779C30.3211 9.27132 30.4714 9.51676 30.666 9.72412C30.8649 9.93148 31.1019 10.0965 31.377 10.2192C31.6562 10.342 31.9694 10.4033 32.3164 10.4033C32.7565 10.4033 33.1479 10.3166 33.4907 10.1431C33.8335 9.96956 34.0959 9.73893 34.2778 9.45117L34.8872 9.87012ZM42.1934 11H40.9556L38.5371 8.34668L37.4707 9.32422V11H36.6011V2.71631H37.4707V8.27051L40.8413 5.08398H42.0854L39.1211 7.80078L42.1934 11ZM56.4629 9.11475C56.3952 9.73682 56.1497 10.2319 55.7266 10.6001C55.3076 10.964 54.7829 11.146 54.1523 11.146C53.8053 11.146 53.488 11.0889 53.2002 10.9746C52.9124 10.8604 52.667 10.7017 52.4639 10.4985C52.2607 10.2954 52.1021 10.0521 51.9878 9.76855C51.8778 9.48079 51.8228 9.16764 51.8228 8.8291V5.82666H50.4834V5.08398H51.8228V2.71631H52.6924V5.08398H55.2124V5.82666H52.6924V8.8291C52.6924 9.04492 52.7262 9.24805 52.7939 9.43848C52.8659 9.62891 52.9632 9.79606 53.0859 9.93994C53.2129 10.0838 53.3652 10.1981 53.543 10.2827C53.7207 10.3631 53.9238 10.4033 54.1523 10.4033C54.584 10.4033 54.9437 10.27 55.2314 10.0034C55.5234 9.73258 55.6906 9.38346 55.7329 8.95605L56.4629 9.11475ZM63.6484 8.06104C63.6484 8.5223 63.5744 8.94124 63.4263 9.31787C63.2824 9.6945 63.0729 10.0182 62.7979 10.2891C62.527 10.5557 62.2012 10.7651 61.8203 10.9175C61.4395 11.0698 61.0142 11.146 60.5444 11.146C60.0832 11.146 59.6621 11.0698 59.2812 10.9175C58.9004 10.7651 58.5724 10.5557 58.2974 10.2891C58.0265 10.0182 57.8171 9.6945 57.6689 9.31787C57.5251 8.94124 57.4531 8.5223 57.4531 8.06104C57.4531 7.61247 57.5251 7.19564 57.6689 6.81055C57.8171 6.42122 58.0265 6.09115 58.2974 5.82031C58.5724 5.54525 58.9004 5.33154 59.2812 5.1792C59.6621 5.02262 60.0832 4.94434 60.5444 4.94434C61.0142 4.94434 61.4395 5.02262 61.8203 5.1792C62.2012 5.33154 62.527 5.54525 62.7979 5.82031C63.0729 6.09115 63.2824 6.42122 63.4263 6.81055C63.5744 7.19564 63.6484 7.61247 63.6484 8.06104ZM62.7788 8.06104C62.7788 7.72249 62.728 7.41146 62.6265 7.12793C62.5291 6.84017 62.3831 6.58838 62.1885 6.37256C61.9938 6.15674 61.7568 5.98747 61.4775 5.86475C61.2025 5.74202 60.8914 5.68066 60.5444 5.68066C60.1974 5.68066 59.8843 5.74202 59.605 5.86475C59.3299 5.98747 59.0972 6.15674 58.9067 6.37256C58.7163 6.58838 58.5703 6.84017 58.4688 7.12793C58.3714 7.41146 58.3228 7.72249 58.3228 8.06104C58.3228 8.39958 58.3714 8.71273 58.4688 9.00049C58.5703 9.28402 58.7163 9.52946 58.9067 9.73682C59.0972 9.94417 59.3299 10.1071 59.605 10.2256C59.8843 10.3441 60.1974 10.4033 60.5444 10.4033C60.8914 10.4033 61.2025 10.3441 61.4775 10.2256C61.7568 10.1071 61.9938 9.94417 62.1885 9.73682C62.3831 9.52946 62.5291 9.28402 62.6265 9.00049C62.728 8.71273 62.7788 8.39958 62.7788 8.06104ZM20.9033 18.084C20.9033 18.8838 20.6536 19.4784 20.1543 19.8677C19.6549 20.257 18.9546 20.4517 18.0532 20.4517H16.1807V24H15.311V15.7163H18.0405C18.9504 15.7163 19.6549 15.9152 20.1543 16.313C20.6536 16.7065 20.9033 17.2969 20.9033 18.084ZM20.0337 18.084C20.0337 17.5127 19.8538 17.1001 19.4941 16.8462C19.1344 16.5881 18.6541 16.459 18.0532 16.459H16.1807V19.709H18.0532C18.6541 19.709 19.1344 19.582 19.4941 19.3281C19.8538 19.07 20.0337 18.6553 20.0337 18.084ZM26.8257 24H23.2773V23.2573H24.6167V16.459H23.2773V15.7163H25.4927V23.2573H26.8257V24ZM29.1807 22.4004C29.1807 22.028 29.2738 21.717 29.46 21.4673C29.6462 21.2134 29.8895 21.0145 30.1899 20.8706C30.4946 20.7225 30.8416 20.6167 31.231 20.5532C31.6245 20.4855 32.0244 20.4517 32.4307 20.4517C32.5872 20.4517 32.7269 20.4538 32.8496 20.458C32.9766 20.4622 33.0951 20.4686 33.2051 20.4771C33.3193 20.4855 33.4336 20.4961 33.5479 20.5088C33.6621 20.5215 33.7869 20.5363 33.9224 20.5532V20.1279C33.9224 19.8402 33.8589 19.6032 33.7319 19.417C33.6092 19.2308 33.4569 19.0848 33.2749 18.979C33.0929 18.869 32.9025 18.7928 32.7036 18.7505C32.5047 18.7039 32.3354 18.6807 32.1958 18.6807C31.7557 18.6807 31.3494 18.7399 30.9771 18.8584C30.6047 18.9769 30.2576 19.1356 29.936 19.3345L29.5425 18.6807C29.8979 18.4648 30.2957 18.2892 30.7358 18.1538C31.1802 18.0142 31.6668 17.9443 32.1958 17.9443C32.5174 17.9443 32.8327 17.9867 33.1416 18.0713C33.4548 18.1517 33.734 18.2786 33.9795 18.4521C34.2292 18.6214 34.4281 18.8457 34.5762 19.125C34.7243 19.4043 34.7983 19.7386 34.7983 20.1279V24H33.9224V23.0098C33.77 23.2002 33.5965 23.3674 33.4019 23.5112C33.2114 23.6551 33.0104 23.7736 32.7988 23.8667C32.5872 23.9556 32.3757 24.0233 32.1641 24.0698C31.9525 24.1206 31.7515 24.146 31.561 24.146C30.7782 24.146 30.1857 23.9958 29.7837 23.6953C29.3817 23.3949 29.1807 22.9632 29.1807 22.4004ZM31.561 23.4033C31.925 23.4033 32.2508 23.3504 32.5386 23.2446C32.8306 23.1346 33.0781 22.9992 33.2812 22.8384C33.4844 22.6776 33.641 22.5062 33.751 22.3242C33.8652 22.1423 33.9224 21.9772 33.9224 21.8291V21.2705C33.6388 21.2282 33.3659 21.2049 33.1035 21.2007C32.8454 21.1965 32.6211 21.1943 32.4307 21.1943C32.1175 21.1943 31.8149 21.2155 31.5229 21.2578C31.2352 21.3001 30.9834 21.37 30.7676 21.4673C30.5518 21.5604 30.3783 21.6831 30.2471 21.8354C30.1159 21.9878 30.0503 22.1761 30.0503 22.4004C30.0503 22.6501 30.1709 22.8807 30.4121 23.0923C30.6576 23.2996 31.0405 23.4033 31.561 23.4033ZM42.3901 18.084L39.1909 25.498C39.0259 25.9128 38.7931 26.1836 38.4927 26.3105C38.1922 26.4417 37.86 26.5073 37.4961 26.5073C37.0898 26.5073 36.6836 26.4333 36.2773 26.2852L36.4487 25.5361C36.6476 25.6208 36.8423 25.68 37.0327 25.7139C37.2231 25.752 37.3776 25.771 37.4961 25.771C37.7839 25.771 37.9806 25.7012 38.0864 25.5615C38.1965 25.4219 38.2917 25.2568 38.3721 25.0664L38.7339 24.1714L36.0933 18.084H37.1216L39.2544 23.2573L41.3491 18.084H42.3901ZM48.1157 24H44.5674V23.2573H45.9067V16.459H44.5674V15.7163H46.7827V23.2573H48.1157V24ZM54.0317 16.9033H52.8511V15.7163H54.0317V16.9033ZM55.2124 24H51.6641V23.2573H53.0034V18.8267H51.6641V18.084H53.8794V23.2573H55.2124V24ZM63.3374 22.3623C63.3374 22.7093 63.2507 22.9971 63.0771 23.2256C62.9036 23.4541 62.6794 23.6361 62.4043 23.7715C62.1335 23.9069 61.8288 24.0021 61.4902 24.0571C61.1559 24.1164 60.828 24.146 60.5063 24.146C59.9689 24.146 59.4336 24.0677 58.9004 23.9111C58.3672 23.7546 57.9059 23.5493 57.5166 23.2954L57.9038 22.5464C58.3397 22.8215 58.7692 23.033 59.1924 23.1812C59.6156 23.3293 60.0535 23.4033 60.5063 23.4033C61.814 23.4033 62.4678 23.0648 62.4678 22.3877C62.4678 22.2227 62.4128 22.0894 62.3027 21.9878C62.1969 21.882 62.0531 21.7974 61.8711 21.7339C61.6891 21.6662 61.4797 21.6133 61.2427 21.5752C61.0099 21.5371 60.7645 21.5011 60.5063 21.4673C60.1763 21.4207 59.8483 21.3657 59.5225 21.3022C59.1966 21.2388 58.8983 21.1436 58.6274 21.0166C58.3608 20.8896 58.145 20.7204 57.98 20.5088C57.8192 20.2972 57.7388 20.0179 57.7388 19.6709C57.7388 19.3747 57.8128 19.1187 57.9609 18.9028C58.1133 18.687 58.3143 18.5072 58.564 18.3633C58.8179 18.2194 59.1141 18.1136 59.4526 18.0459C59.7912 17.9782 60.1424 17.9443 60.5063 17.9443C61.0269 17.9443 61.4924 18.0057 61.9028 18.1284C62.3133 18.2469 62.6836 18.4183 63.0137 18.6426L62.6646 19.3218C62.326 19.0848 61.9832 18.9198 61.6362 18.8267C61.2892 18.7293 60.9126 18.6807 60.5063 18.6807C60.3244 18.6807 60.1213 18.6976 59.897 18.7314C59.6769 18.7611 59.4717 18.8161 59.2812 18.8965C59.0908 18.9727 58.93 19.0742 58.7988 19.2012C58.6719 19.3239 58.6084 19.4805 58.6084 19.6709C58.6084 19.8359 58.6613 19.9692 58.7671 20.0708C58.8771 20.1681 59.0231 20.2507 59.2051 20.3184C59.387 20.3818 59.5944 20.4326 59.8271 20.4707C60.0641 20.5088 60.3117 20.5448 60.5698 20.5786C60.8914 20.6252 61.2152 20.6802 61.541 20.7437C61.8711 20.8071 62.1694 20.9002 62.436 21.0229C62.7069 21.1457 62.9248 21.3128 63.0898 21.5244C63.2549 21.736 63.3374 22.0153 63.3374 22.3623ZM70.6562 22.1147C70.5885 22.7368 70.3431 23.2319 69.9199 23.6001C69.501 23.964 68.9762 24.146 68.3457 24.146C67.9987 24.146 67.6813 24.0889 67.3936 23.9746C67.1058 23.8604 66.8604 23.7017 66.6572 23.4985C66.4541 23.2954 66.2954 23.0521 66.1812 22.7686C66.0711 22.4808 66.0161 22.1676 66.0161 21.8291V18.8267H64.6768V18.084H66.0161V15.7163H66.8857V18.084H69.4058V18.8267H66.8857V21.8291C66.8857 22.0449 66.9196 22.248 66.9873 22.4385C67.0592 22.6289 67.1566 22.7961 67.2793 22.9399C67.4062 23.0838 67.5586 23.1981 67.7363 23.2827C67.9141 23.3631 68.1172 23.4033 68.3457 23.4033C68.7773 23.4033 69.137 23.27 69.4248 23.0034C69.7168 22.7326 69.884 22.3835 69.9263 21.9561L70.6562 22.1147ZM77.5308 22.3623C77.5308 22.7093 77.444 22.9971 77.2705 23.2256C77.097 23.4541 76.8727 23.6361 76.5977 23.7715C76.3268 23.9069 76.0221 24.0021 75.6836 24.0571C75.3493 24.1164 75.0213 24.146 74.6997 24.146C74.1623 24.146 73.627 24.0677 73.0938 23.9111C72.5605 23.7546 72.0993 23.5493 71.71 23.2954L72.0972 22.5464C72.533 22.8215 72.9626 23.033 73.3857 23.1812C73.8089 23.3293 74.2469 23.4033 74.6997 23.4033C76.0073 23.4033 76.6611 23.0648 76.6611 22.3877C76.6611 22.2227 76.6061 22.0894 76.4961 21.9878C76.3903 21.882 76.2464 21.7974 76.0645 21.7339C75.8825 21.6662 75.673 21.6133 75.436 21.5752C75.2033 21.5371 74.9578 21.5011 74.6997 21.4673C74.3696 21.4207 74.0417 21.3657 73.7158 21.3022C73.39 21.2388 73.0916 21.1436 72.8208 21.0166C72.5542 20.8896 72.3384 20.7204 72.1733 20.5088C72.0125 20.2972 71.9321 20.0179 71.9321 19.6709C71.9321 19.3747 72.0062 19.1187 72.1543 18.9028C72.3066 18.687 72.5076 18.5072 72.7573 18.3633C73.0112 18.2194 73.3075 18.1136 73.646 18.0459C73.9845 17.9782 74.3358 17.9443 74.6997 17.9443C75.2202 17.9443 75.6857 18.0057 76.0962 18.1284C76.5067 18.2469 76.877 18.4183 77.207 18.6426L76.8579 19.3218C76.5194 19.0848 76.1766 18.9198 75.8296 18.8267C75.4826 18.7293 75.106 18.6807 74.6997 18.6807C74.5177 18.6807 74.3146 18.6976 74.0903 18.7314C73.8703 18.7611 73.665 18.8161 73.4746 18.8965C73.2842 18.9727 73.1234 19.0742 72.9922 19.2012C72.8652 19.3239 72.8018 19.4805 72.8018 19.6709C72.8018 19.8359 72.8547 19.9692 72.9604 20.0708C73.0705 20.1681 73.2165 20.2507 73.3984 20.3184C73.5804 20.3818 73.7878 20.4326 74.0205 20.4707C74.2575 20.5088 74.505 20.5448 74.7632 20.5786C75.0848 20.6252 75.4085 20.6802 75.7344 20.7437C76.0645 20.8071 76.3628 20.9002 76.6294 21.0229C76.9002 21.1457 77.1182 21.3128 77.2832 21.5244C77.4482 21.736 77.5308 22.0153 77.5308 22.3623Z" fill="#EEEEEE"/>
<path fill-rule="evenodd" clip-rule="evenodd" d="M5.78234 9.22034C5.85218 9.29001 5.9076 9.37277 5.94541 9.46389C5.98322 9.55501 6.00268 9.65269 6.00268 9.75134C6.00268 9.84999 5.98322 9.94767 5.94541 10.0388C5.9076 10.1299 5.85218 10.2127 5.78234 10.2823L1.81184 14.2513L5.78234 18.2203C5.85207 18.2901 5.90739 18.3729 5.94512 18.464C5.98286 18.5551 6.00229 18.6527 6.00229 18.7513C6.00229 18.85 5.98286 18.9476 5.94512 19.0387C5.90739 19.1298 5.85207 19.2126 5.78234 19.2823C5.71261 19.3521 5.62982 19.4074 5.53872 19.4451C5.44761 19.4829 5.34996 19.5023 5.25134 19.5023C5.15272 19.5023 5.05507 19.4829 4.96396 19.4451C4.87286 19.4074 4.79007 19.3521 4.72034 19.2823L0.220341 14.7823C0.150496 14.7127 0.0950813 14.6299 0.0572716 14.5388C0.0194619 14.4477 0 14.35 0 14.2513C0 14.1527 0.0194619 14.055 0.0572716 13.9639C0.0950813 13.8728 0.150496 13.79 0.220341 13.7203L4.72034 9.22034C4.79001 9.1505 4.87277 9.09508 4.96389 9.05727C5.05501 9.01946 5.15269 9 5.25134 9C5.34999 9 5.44767 9.01946 5.53879 9.05727C5.62991 9.09508 5.71267 9.1505 5.78234 9.22034V9.22034Z" fill="#EEEEEE"/>
<path fill-rule="evenodd" clip-rule="evenodd" d="M0.751343 14.2513C0.751343 14.0524 0.830361 13.8617 0.971013 13.721C1.11167 13.5804 1.30243 13.5013 1.50134 13.5013H11.2513C11.4503 13.5013 11.641 13.5804 11.7817 13.721C11.9223 13.8617 12.0013 14.0524 12.0013 14.2513C12.0013 14.4503 11.9223 14.641 11.7817 14.7817C11.641 14.9223 11.4503 15.0013 11.2513 15.0013H1.50134C1.30243 15.0013 1.11167 14.9223 0.971013 14.7817C0.830361 14.641 0.751343 14.4503 0.751343 14.2513Z" fill="#EEEEEE"/>
</svg>
