<svg width="16" height="16" viewBox="0 0 16 16" fill="none" xmlns="http://www.w3.org/2000/svg">
<path fill-rule="evenodd" clip-rule="evenodd" d="M10.0688 3.66881C10.2164 3.51599 10.3929 3.3941 10.5881 3.31024C10.7834 3.22639 10.9933 3.18225 11.2057 3.18041C11.4182 3.17856 11.6289 3.21904 11.8255 3.29949C12.0222 3.37994 12.2008 3.49875 12.351 3.64897C12.5013 3.7992 12.6201 3.97785 12.7005 4.17448C12.781 4.37111 12.8214 4.5818 12.8196 4.79425C12.8177 5.00669 12.7736 5.21665 12.6898 5.41185C12.6059 5.60706 12.484 5.78361 12.3312 5.93121L9.93119 8.33121C9.63115 8.63116 9.22425 8.79966 8.79999 8.79966C8.37573 8.79966 7.96884 8.63116 7.66879 8.33121C7.51791 8.18548 7.31583 8.10484 7.10607 8.10667C6.89631 8.10849 6.69566 8.19262 6.54734 8.34095C6.39901 8.48928 6.31487 8.68993 6.31305 8.89968C6.31123 9.10944 6.39186 9.31152 6.53759 9.46241C7.13768 10.0623 7.95147 10.3993 8.79999 10.3993C9.64852 10.3993 10.4623 10.0623 11.0624 9.46241L13.4624 7.06241C14.0453 6.45888 14.3678 5.65055 14.3605 4.81152C14.3533 3.97249 14.0167 3.16989 13.4234 2.57659C12.8301 1.98328 12.0275 1.64674 11.1885 1.63945C10.3494 1.63216 9.54112 1.9547 8.93759 2.53761L7.73759 3.73761C7.66118 3.8114 7.60024 3.89968 7.55831 3.99728C7.51638 4.09489 7.49431 4.19986 7.49339 4.30608C7.49247 4.41231 7.51271 4.51765 7.55293 4.61597C7.59316 4.71429 7.65256 4.80361 7.72768 4.87872C7.80279 4.95384 7.89211 5.01324 7.99043 5.05346C8.08874 5.09369 8.19409 5.11393 8.30031 5.11301C8.40654 5.11208 8.51151 5.09001 8.60911 5.04809C8.70672 5.00616 8.79499 4.94521 8.86879 4.86881L10.0688 3.66881V3.66881ZM6.06879 7.66881C6.36884 7.36885 6.77573 7.20035 7.19999 7.20035C7.62425 7.20035 8.03115 7.36885 8.33119 7.66881C8.40499 7.74521 8.49326 7.80616 8.59087 7.84809C8.68847 7.89001 8.79345 7.91208 8.89967 7.91301C9.00589 7.91393 9.11124 7.89369 9.20955 7.85346C9.30787 7.81324 9.39719 7.75384 9.47231 7.67872C9.54742 7.60361 9.60682 7.51429 9.64705 7.41597C9.68727 7.31765 9.70751 7.21231 9.70659 7.10608C9.70567 6.99986 9.6836 6.89489 9.64167 6.79728C9.59974 6.69968 9.5388 6.6114 9.46239 6.53761C8.8623 5.9377 8.04852 5.60069 7.19999 5.60069C6.35147 5.60069 5.53768 5.9377 4.93759 6.53761L2.53759 8.93761C2.23196 9.2328 1.98818 9.5859 1.82047 9.97631C1.65276 10.3667 1.56448 10.7866 1.56079 11.2115C1.5571 11.6364 1.63806 12.0578 1.79896 12.4511C1.95986 12.8443 2.19747 13.2016 2.49793 13.5021C2.79838 13.8025 3.15567 14.0401 3.54894 14.201C3.94221 14.3619 4.36358 14.4429 4.78848 14.4392C5.21337 14.4355 5.63327 14.3472 6.02369 14.1795C6.4141 14.0118 6.7672 13.768 7.06239 13.4624L8.26239 12.2624C8.3388 12.1886 8.39974 12.1003 8.44167 12.0027C8.4836 11.9051 8.50567 11.8001 8.50659 11.6939C8.50751 11.5877 8.48727 11.4824 8.44705 11.384C8.40682 11.2857 8.34742 11.1964 8.27231 11.1213C8.19719 11.0462 8.10787 10.9868 8.00955 10.9465C7.91124 10.9063 7.80589 10.8861 7.69967 10.887C7.59345 10.8879 7.48847 10.91 7.39087 10.9519C7.29326 10.9939 7.20499 11.0548 7.13119 11.1312L5.93119 12.3312C5.7836 12.484 5.60704 12.6059 5.41184 12.6898C5.21663 12.7736 5.00668 12.8178 4.79423 12.8196C4.58179 12.8215 4.3711 12.781 4.17446 12.7005C3.97783 12.6201 3.79919 12.5013 3.64896 12.351C3.49873 12.2008 3.37993 12.0222 3.29948 11.8255C3.21903 11.6289 3.17854 11.4182 3.18039 11.2058C3.18224 10.9933 3.22637 10.7834 3.31023 10.5882C3.39408 10.393 3.51597 10.2164 3.66879 10.0688L6.06879 7.66881Z" fill="white"/>
</svg>
