<svg width="150" height="150" viewBox="0 0 150 150" fill="none" xmlns="http://www.w3.org/2000/svg">
<path d="M97 50.562L94.624 51.062L62.624 57.062L61 57.312V84.126C59.7918 83.3986 58.4102 83.0097 57 83C52.6 83 49 86.6 49 91C49 95.4 52.6 99 57 99C61.4 99 65 95.4 65 91V68.624L93 63.376V78.124C91.7916 77.3973 90.41 77.0091 89 77C84.6 77 81 80.6 81 85C81 89.4 84.6 93 89 93C93.4 93 97 89.4 97 85V50.562ZM93 55.374V59.374L65 64.626V60.626L93 55.374ZM89 81C91.234 81 93 82.766 93 85C93 87.234 91.234 89 89 89C86.766 89 85 87.234 85 85C85 82.766 86.766 81 89 81ZM57 87C59.234 87 61 88.766 61 91C61 93.234 59.234 95 57 95C54.766 95 53 93.234 53 91C53 88.766 54.766 87 57 87Z" fill="#808080"/>
<rect width="150" height="150" fill="#C4C4C4" fill-opacity="0.5"/>
</svg>
