<svg width="105" height="104" viewBox="0 0 105 104" fill="none" xmlns="http://www.w3.org/2000/svg">
<g filter="url(#filter0_d)">
<path d="M47.2785 54.5873L63.5131 48.5874L61.3798 42.815C61.2954 42.5867 61.3082 42.3283 61.4165 42.0726C61.5247 41.8169 61.7236 41.5752 61.9879 41.3783C62.2522 41.1813 62.5701 41.0378 62.9015 40.966C63.2328 40.8941 63.5626 40.8971 63.8493 40.9746L88.4508 47.6283C88.8352 47.7323 89.1147 47.9627 89.2278 48.2688C89.341 48.5749 89.2785 48.9317 89.0542 49.2607L74.6927 70.3143C74.5253 70.5596 74.2767 70.7764 73.9783 70.9373C73.6798 71.0982 73.345 71.1959 73.0161 71.2182C72.6872 71.2405 72.379 71.1862 72.1305 71.0624C71.882 70.9385 71.7042 70.7505 71.6198 70.5223L69.4865 64.7499L53.2519 70.7499C52.3908 71.0674 51.4754 71.129 50.7067 70.9211C49.938 70.7132 49.3787 70.2528 49.1516 69.641L44.8849 58.0963C44.66 57.4837 44.7857 56.7704 45.2343 56.1126C45.683 55.4549 46.4181 54.9064 47.2785 54.5873ZM85.3091 49.7171L65.6566 44.4019L67.6133 49.6963L48.1319 56.8963L52.3985 68.441L71.88 61.241L73.8367 66.5354L85.3091 49.7171Z" fill="white"/>
<path d="M49.4959 51.2891L33.2613 57.2891L35.3947 63.0614C35.479 63.2897 35.4662 63.5481 35.3579 63.8038C35.2497 64.0596 35.0509 64.3012 34.7865 64.4982C34.5222 64.6952 34.2043 64.8387 33.873 64.9105C33.5416 64.9823 33.2118 64.9793 32.9251 64.9018L8.32357 58.2482C7.9392 58.1442 7.65972 57.9138 7.54658 57.6076C7.43345 57.3015 7.49592 56.9447 7.72026 56.6158L22.0817 35.5622C22.2491 35.3169 22.4977 35.1001 22.7962 34.9392C23.0946 34.7783 23.4294 34.6805 23.7583 34.6582C24.0872 34.636 24.3954 34.6902 24.6439 34.8141C24.8925 34.938 25.0702 35.1259 25.1546 35.3542L27.288 41.1265L43.5225 35.1266C44.3836 34.809 45.299 34.7474 46.0677 34.9553C46.8364 35.1632 47.3957 35.6236 47.6228 36.2355L51.8895 47.7802C52.1144 48.3927 51.9888 49.1061 51.5401 49.7638C51.0914 50.4216 50.3563 50.9701 49.4959 51.2891ZM11.4653 56.1594L31.1178 61.4745L29.1611 56.1801L48.6426 48.9802L44.3759 37.4355L24.8944 44.6355L22.9377 39.3411L11.4653 56.1594Z" fill="white"/>
</g>
<defs>
<filter id="filter0_d" x="-3.28906" y="-1.72202" width="112.287" height="110.774" filterUnits="userSpaceOnUse" color-interpolation-filters="sRGB">
<feFlood flood-opacity="0" result="BackgroundImageFix"/>
<feColorMatrix in="SourceAlpha" type="matrix" values="0 0 0 0 0 0 0 0 0 0 0 0 0 0 0 0 0 0 127 0"/>
<feOffset dy="2"/>
<feGaussianBlur stdDeviation="2"/>
<feColorMatrix type="matrix" values="0 0 0 0 0 0 0 0 0 0 0 0 0 0 0 0 0 0 0.25 0"/>
<feBlend mode="normal" in2="BackgroundImageFix" result="effect1_dropShadow"/>
<feBlend mode="normal" in="SourceGraphic" in2="effect1_dropShadow" result="shape"/>
</filter>
</defs>
</svg>
